<svg xmlns="http://www.w3.org/2000/svg" width="20.781" height="21" viewBox="0 0 20.781 21"><defs><style>.cls-1{fill:#414344;fill-rule:evenodd;filter:url(#filter)}</style><filter id="filter" x="441" y="3775" width="20.781" height="21" filterUnits="userSpaceOnUse"><feFlood result="flood" flood-color="#6b6f71"/><feComposite result="composite" operator="in" in2="SourceGraphic"/><feBlend result="blend" in2="SourceGraphic"/></filter></defs><path id="facebook" class="cls-1" d="M460.194 3796h-17.588a1.549 1.549 0 0 1-1.6-1.55v-17.83a1.608 1.608 0 0 1 1.6-1.62h17.588a1.608 1.608 0 0 1 1.6 1.62v17.83a1.549 1.549 0 0 1-1.6 1.55zm-10.331-16.95a5.889 5.889 0 0 0-2.489.46 2.963 2.963 0 0 0-1.3 1.33 4.666 4.666 0 0 0-.347 2.07v.94h-1.555v2.46h1.555v8.17h3.325v-8.17h2.074l.574-2.46h-2.648v-.88a1.25 1.25 0 0 1 1.459-1.55 2.786 2.786 0 0 1 1.414.54l.606-2.32a9.522 9.522 0 0 0-2.668-.59z" transform="translate(-441 -3775)"/></svg>