<svg xmlns="http://www.w3.org/2000/svg" width="23.406" height="20.34" viewBox="0 0 23.406 20.34"><defs><style>.cls-1{fill:#414344;fill-rule:evenodd}</style></defs><path id="g_" data-name="g+" class="cls-1" d="M654.344 3780.11v3.61h-1.463v-3.61h-3.656v-1.48h3.656v-3.61h1.463v3.61H658v1.48h-3.656zm-10.113-3.66a3.8 3.8 0 0 1 2.058 3.45 4.006 4.006 0 0 1-1.811 3.11c-1 .77-1.185 1.1-1.185 1.75 0 .56 1.067 1.52 1.624 1.91a4.235 4.235 0 0 1 2.113 3.99c0 2.21-2.113 4.69-6.019 4.69-3.428 0-6.411-1.66-6.411-3.88 0-2.25 2.729-4.42 6.156-4.42.374 0 .716-.01 1.07-.01a2.414 2.414 0 0 1-.84-1.71 2.585 2.585 0 0 1 .313-1.16 5.506 5.506 0 0 1-.572-.01 4.5 4.5 0 0 1-4.7-4.53c0-2.41 2.605-4.63 5.372-4.63h6.171l-1.381 1.45h-1.957zm-2.822 11.18c-2.369-.03-4.491 1.43-4.491 3.19 0 1.79 1.711 3.09 4.08 3.09 3.33 0 4.491-1.21 4.491-3a2.787 2.787 0 0 0-.076-.64c-.26-1.01-1.182-1.51-2.469-2.4a5.008 5.008 0 0 0-1.535-.24zm2.662-7.7c-.275-2.08-1.855-3.74-3.445-3.79s-2.656 1.54-2.381 3.62 1.785 3.79 3.376 3.84 2.724-1.6 2.45-3.67z" transform="translate(-634.594 -3775)"/></svg>