<svg xmlns="http://www.w3.org/2000/svg" width="20.812" height="21" viewBox="0 0 20.812 21"><defs><style>.cls-1{fill:#414344;fill-rule:evenodd;filter:url(#filter)}</style><filter id="filter" x="571.344" y="3775" width="20.812" height="21" filterUnits="userSpaceOnUse"><feFlood result="flood" flood-color="#6b6f71"/><feComposite result="composite" operator="in" in2="SourceGraphic"/><feBlend result="blend" in2="SourceGraphic"/></filter></defs><path id="instagram" class="cls-1" d="M589.55 3796h-15.6a2.614 2.614 0 0 1-2.6-2.62v-15.75a2.617 2.617 0 0 1 2.6-2.63h15.6a2.617 2.617 0 0 1 2.6 2.63v15.75a2.614 2.614 0 0 1-2.6 2.62zm-7.8-14.57a4.03 4.03 0 0 0-3.655 2.36c-.007.02-.012.03-.018.05-.038.08-.072.17-.1.26-.015.05-.032.09-.046.13-.03.09-.054.18-.077.28l-.034.13c-.021.1-.036.2-.05.3 0 .04-.014.08-.018.12a4.324 4.324 0 0 0-.024.44 4.03 4.03 0 1 0 8.06 0 4.324 4.324 0 0 0-.024-.44c0-.04-.013-.08-.018-.12-.014-.1-.029-.2-.05-.3l-.034-.13a2.99 2.99 0 0 0-.077-.28c-.014-.04-.031-.08-.046-.13-.033-.09-.066-.18-.1-.26l-.017-.05a4.03 4.03 0 0 0-3.672-2.36zm8.06-3.02a1.045 1.045 0 0 0-1.04-1.05h-2.08a1.045 1.045 0 0 0-1.04 1.05v2.1a1.045 1.045 0 0 0 1.04 1.05h2.08a1.045 1.045 0 0 0 1.04-1.05v-2.1zm0 5.38h-1.917a6.554 6.554 0 0 1 .227 1.71 6.37 6.37 0 1 1-12.74 0 6.555 6.555 0 0 1 .227-1.71h-1.917v8.8a1.045 1.045 0 0 0 1.04 1.05h14.04a1.045 1.045 0 0 0 1.04-1.05v-8.8z" transform="translate(-571.344 -3775)"/></svg>