<svg xmlns="http://www.w3.org/2000/svg" width="32" height="26" viewBox="0 0 32 26"><defs><style>.cls-1{fill:#6b6f71;fill-rule:evenodd}</style></defs><path id="icon" class="cls-1" d="M1035 3808h-24a4 4 0 0 1-4-4v-18a4 4 0 0 1 4-4h24a4 4 0 0 1 4 4v18a4 4 0 0 1-4 4zm2-22a2.006 2.006 0 0 0-2-2h-24a2.006 2.006 0 0 0-2 2v18a2.006 2.006 0 0 0 2 2h24a2.006 2.006 0 0 0 2-2v-18zm-4 9h-4a2.006 2.006 0 0 1-2-2v-4a2.006 2.006 0 0 1 2-2h4a2.006 2.006 0 0 1 2 2v4a2.006 2.006 0 0 1-2 2zm0-5a1 1 0 0 0-1-1h-2a1 1 0 0 0-1 1v2a1 1 0 0 0 1 1h2a1 1 0 0 0 1-1v-2zm-9 13h-12a1 1 0 0 1 0-2h12a1 1 0 0 1 0 2zm0-4h-12a1 1 0 0 1 0-2h12a1 1 0 0 1 0 2z" transform="translate(-1007 -3782)"/></svg>