<svg xmlns="http://www.w3.org/2000/svg" width="22.969" height="23" viewBox="0 0 22.969 23"><defs><style>.cls-1{fill:#c7c9ce;fill-rule:evenodd}</style></defs><path id="link" class="cls-1" d="M797.674 3253.74l-3.2 3.21a4.5 4.5 0 0 1-4.394 1.16l2.673-2.67a.909.909 0 0 0 .12-.1l3.2-3.2a2.267 2.267 0 0 0-3.2-3.21l-3.2 3.21-2.769 2.76a4.541 4.541 0 0 1 1.171-4.37l3.2-3.2a4.53 4.53 0 1 1 6.399 6.41zm-13.169 8.42a1.15 1.15 0 1 1-1.6-1.65l7.611-7.6a1.128 1.128 0 0 1 .84-.37 1.147 1.147 0 0 1 1.151 1.15 1.123 1.123 0 0 1-.332.8v.01zm-2.373-2.5l-3.2 3.2a2.267 2.267 0 0 0 3.2 3.21l3.2-3.21a.39.39 0 0 0 .06-.07l2.709-2.7a4.531 4.531 0 0 1-1.168 4.38l-3.2 3.21a4.534 4.534 0 1 1-6.4-6.42l3.2-3.21a4.528 4.528 0 0 1 4.381-1.16l-2.757 2.75c-.009.01-.018.01-.025.02z" transform="translate(-776.031 -3246)"/></svg>