<svg xmlns="http://www.w3.org/2000/svg"><defs><style>.cls-1{fill:#d4d4d4;fill-rule:evenodd}</style><style>.cls-1{fill:#6d6e71;fill-rule:evenodd;filter:url(#filter)}</style><filter id="filter" x="443.125" y="32.313" width="18.063" height="18.281" filterUnits="userSpaceOnUse"><feFlood result="flood" flood-color="#fff"/><feComposite result="composite" operator="in" in2="SourceGraphic"/><feBlend result="blend" in2="SourceGraphic"/></filter><style>.cls-1{fill:#6d6e71;fill-rule:evenodd}</style><style>.cls-1{fill:#eaeced;fill-rule:evenodd}</style><style>.cls-1{fill:#414344;fill-rule:evenodd;filter:url(#filter)}</style><filter id="filter" x="441" y="3775" width="20.781" height="21" filterUnits="userSpaceOnUse"><feFlood result="flood" flood-color="#6b6f71"/><feComposite result="composite" operator="in" in2="SourceGraphic"/><feBlend result="blend" in2="SourceGraphic"/></filter><style>.cls-1{fill:#414344;fill-rule:evenodd}</style><style>.cls-1{fill:#2b75b2;fill-rule:evenodd;filter:url(#filter)}</style><filter id="filter" x="1343" y="21" width="20.78" height="21" filterUnits="userSpaceOnUse"><feFlood result="flood" flood-color="#7e7f82"/><feComposite result="composite" operator="in" in2="SourceGraphic"/><feBlend result="blend" in2="SourceGraphic"/></filter><style>.cls-1{fill:#2b75b2;fill-rule:evenodd}</style><style>.cls-1{fill:#414344;fill-rule:evenodd;filter:url(#filter)}</style><filter id="filter" x="634.594" y="3775" width="23.406" height="20.34" filterUnits="userSpaceOnUse"><feFlood result="flood" flood-color="#6b6f71"/><feComposite result="composite" operator="in" in2="SourceGraphic"/><feBlend result="blend" in2="SourceGraphic"/></filter><style>.cls-1{fill:#414344;fill-rule:evenodd}</style><style>.cls-1{fill:#dd4070;fill-rule:evenodd;filter:url(#filter)}</style><filter id="filter" x="1536.59" y="21" width="23.41" height="20.344" filterUnits="userSpaceOnUse"><feFlood result="flood" flood-color="#7e7f82"/><feComposite result="composite" operator="in" in2="SourceGraphic"/><feBlend result="blend" in2="SourceGraphic"/></filter><style>.cls-1{fill:#dd4070;fill-rule:evenodd}</style><style>.cls-1{fill:#414344;fill-rule:evenodd;filter:url(#filter)}</style><filter id="filter" x="571.344" y="3775" width="20.812" height="21" filterUnits="userSpaceOnUse"><feFlood result="flood" flood-color="#6b6f71"/><feComposite result="composite" operator="in" in2="SourceGraphic"/><feBlend result="blend" in2="SourceGraphic"/></filter><style>.cls-1{fill:#414344;fill-rule:evenodd}</style><style>.cls-1{fill:#26658e;fill-rule:evenodd;filter:url(#filter)}</style><filter id="filter" x="1473.34" y="21" width="20.82" height="21" filterUnits="userSpaceOnUse"><feFlood result="flood" flood-color="#7e7f82"/><feComposite result="composite" operator="in" in2="SourceGraphic"/><feBlend result="blend" in2="SourceGraphic"/></filter><style>.cls-1{fill:#26658e;fill-rule:evenodd}</style><style>.cls-1{fill:#6d6e71;fill-rule:evenodd;filter:url(#filter)}</style><filter id="filter" x="542.969" y="27.563" width="18.062" height="21.031" filterUnits="userSpaceOnUse"><feFlood result="flood" flood-color="#fff"/><feComposite result="composite" operator="in" in2="SourceGraphic"/><feBlend result="blend" in2="SourceGraphic"/></filter><style>.cls-1{fill:#6d6e71;fill-rule:evenodd}</style><style>.cls-1{fill:#6d6e71;fill-rule:evenodd;filter:url(#filter)}</style><filter id="filter" x="750.688" y="30.313" width="18.062" height="18.281" filterUnits="userSpaceOnUse"><feFlood result="flood" flood-color="#fff"/><feComposite result="composite" operator="in" in2="SourceGraphic"/><feBlend result="blend" in2="SourceGraphic"/></filter><style>.cls-1{fill:#6d6e71;fill-rule:evenodd}</style><style>.cls-1{fill:#cc9800;fill-rule:evenodd}</style><style>.cls-1{fill:#adff63;fill-rule:evenodd}</style><style>.cls-1{fill:#6d6e71;fill-rule:evenodd;filter:url(#filter)}</style><filter id="filter" x="1517.66" y="194.625" width="29.34" height="23.656" filterUnits="userSpaceOnUse"><feFlood result="flood" flood-color="#1faae2"/><feComposite result="composite" operator="in" in2="SourceGraphic"/><feBlend result="blend" in2="SourceGraphic"/></filter><style>.cls-1{fill:#6d6e71;fill-rule:evenodd}</style><style>.cls-1{fill:#c7c9ce;fill-rule:evenodd;filter:url(#filter)}</style><filter id="filter" x="611" y="3245" width="24" height="24" filterUnits="userSpaceOnUse"><feFlood result="flood" flood-color="#737477"/><feComposite result="composite" operator="in" in2="SourceGraphic"/><feBlend result="blend" in2="SourceGraphic"/></filter><style>.cls-1{fill:#c7c9ce;fill-rule:evenodd}</style><style>.cls-1{fill:#1faae2;fill-rule:evenodd}</style><style>.cls-1{fill:#1faae2;fill-rule:evenodd;filter:url(#filter)}</style><filter id="filter" x="1446.97" y="190" width="24.97" height="34" filterUnits="userSpaceOnUse"><feFlood result="flood" flood-color="#737477"/><feComposite result="composite" operator="in" in2="SourceGraphic"/><feBlend result="blend" in2="SourceGraphic"/></filter><style>.cls-1{fill:#6d6e71;fill-rule:evenodd;filter:url(#filter)}</style><filter id="filter" x="1372" y="193.063" width="27.88" height="28.093" filterUnits="userSpaceOnUse"><feFlood result="flood" flood-color="#1faae2"/><feComposite result="composite" operator="in" in2="SourceGraphic"/><feBlend result="blend" in2="SourceGraphic"/></filter><style>.cls-1{fill:#6d6e71;fill-rule:evenodd}</style><style>.cls-1{fill:#c7c9ce;fill-rule:evenodd;filter:url(#filter)}</style><filter id="filter" x="776.031" y="3246" width="22.969" height="23" filterUnits="userSpaceOnUse"><feFlood result="flood" flood-color="#737477"/><feComposite result="composite" operator="in" in2="SourceGraphic"/><feBlend result="blend" in2="SourceGraphic"/></filter><style>.cls-1{fill:#c7c9ce;fill-rule:evenodd}</style><style>.cls-1{fill:#6d6e71;fill-rule:evenodd;filter:url(#filter)}</style><filter id="filter" x="646.844" y="31.219" width="17.156" height="16.469" filterUnits="userSpaceOnUse"><feFlood result="flood" flood-color="#fff"/><feComposite result="composite" operator="in" in2="SourceGraphic"/><feBlend result="blend" in2="SourceGraphic"/></filter><style>.cls-1{fill:#6d6e71;fill-rule:evenodd}</style><style>.cls-1{fill:#414344;fill-rule:evenodd;filter:url(#filter)}</style><filter id="filter" x="505.188" y="3775.66" width="24.718" height="20.34" filterUnits="userSpaceOnUse"><feFlood result="flood" flood-color="#6b6f71"/><feComposite result="composite" operator="in" in2="SourceGraphic"/><feBlend result="blend" in2="SourceGraphic"/></filter><style>.cls-1{fill:#414344;fill-rule:evenodd}</style><style>.cls-1{fill:#1faae2;fill-rule:evenodd;filter:url(#filter)}</style><filter id="filter" x="1407.19" y="21.656" width="24.72" height="20.344" filterUnits="userSpaceOnUse"><feFlood result="flood" flood-color="#7e7f82"/><feComposite result="composite" operator="in" in2="SourceGraphic"/><feBlend result="blend" in2="SourceGraphic"/></filter><style>.cls-1{fill:#1faae2;fill-rule:evenodd}</style></defs><symbol id="arrow" viewBox="0 0 23 40"><path id="arrow" class="cls-1" d="M1514 992.024l15.07 14.966-15.26 15.17a2.823 2.823 0 0 0-.81 1.98 2.868 2.868 0 0 0 2.87 2.86 2.907 2.907 0 0 0 2-.8l17.25-17.14a2.853 2.853 0 0 0 .88-2.06v-.01a2.853 2.853 0 0 0-.88-2.06l-17.25-17.143-.01.008a2.864 2.864 0 1 0-3.86 4.229z" transform="translate(-1513 -987)"/></symbol><symbol id="blog-h" viewBox="0 0 18.063 18.281"><path id="icon" class="cls-1" d="M458.828 50.6h-13.457a2.258 2.258 0 0 1-2.243-2.273V34.694a2.365 2.365 0 0 1 2.257-2.38h13.547a2.281 2.281 0 0 1 2.257 2.285v13.715a2.372 2.372 0 0 1-2.361 2.286zm1.233-16a1.141 1.141 0 0 0-1.129-1.143h-13.547a1.233 1.233 0 0 0-1.136 1.237v13.634a1.129 1.129 0 0 0 1.122 1.136h13.457a1.24 1.24 0 0 0 1.233-1.15V34.6zm-3.387 10.286h-9.031a.571.571 0 0 1 0-1.143h9.031a.571.571 0 0 1 0 1.143zm0-3.429h-9.031a.571.571 0 0 1 0-1.143h9.031a.571.571 0 0 1 0 1.143zm0-3.428h-9.031a.572.572 0 0 1 0-1.143h9.031a.572.572 0 0 1 0 1.143z" transform="translate(-443.125 -32.313)"/></symbol><symbol id="blog" viewBox="0 0 18.063 18.281"><path id="icon" class="cls-1" d="M443.828 41.6h-13.457a2.258 2.258 0 0 1-2.243-2.273V25.694a2.365 2.365 0 0 1 2.257-2.38h13.547a2.281 2.281 0 0 1 2.257 2.286v13.714a2.372 2.372 0 0 1-2.361 2.286zm1.233-16a1.141 1.141 0 0 0-1.129-1.143h-13.547a1.233 1.233 0 0 0-1.136 1.237v13.634a1.129 1.129 0 0 0 1.122 1.136h13.457a1.24 1.24 0 0 0 1.233-1.15V25.6zm-3.387 10.286h-9.031a.571.571 0 0 1 0-1.143h9.031a.571.571 0 0 1 0 1.143zm0-3.429h-9.031a.571.571 0 0 1 0-1.143h9.031a.571.571 0 0 1 0 1.143zm0-3.428h-9.031a.572.572 0 0 1 0-1.143h9.031a.572.572 0 0 1 0 1.143z" transform="translate(-428.125 -23.313)"/></symbol><symbol id="divide" viewBox="0 0 1159 22"><path id="divide" class="cls-1" d="M420 1692v-2s281.535-20 567.089-20c293.831 0 591.911 20 591.911 20v2s-298.15-20-592.012-20C701.468 1672 420 1692 420 1692z" transform="translate(-420 -1670)"/></symbol><symbol id="facebook-g-h" viewBox="0 0 20.781 21"><path id="facebook" class="cls-1" d="M460.194 3796h-17.588a1.549 1.549 0 0 1-1.6-1.55v-17.83a1.608 1.608 0 0 1 1.6-1.62h17.588a1.608 1.608 0 0 1 1.6 1.62v17.83a1.549 1.549 0 0 1-1.6 1.55zm-10.331-16.95a5.889 5.889 0 0 0-2.489.46 2.963 2.963 0 0 0-1.3 1.33 4.666 4.666 0 0 0-.347 2.07v.94h-1.555v2.46h1.555v8.17h3.325v-8.17h2.074l.574-2.46h-2.648v-.88a1.25 1.25 0 0 1 1.459-1.55 2.786 2.786 0 0 1 1.414.54l.606-2.32a9.522 9.522 0 0 0-2.668-.59z" transform="translate(-441 -3775)"/></symbol><symbol id="facebook-g" viewBox="0 0 20.781 21"><path id="facebook" class="cls-1" d="M460.194 3796h-17.588a1.549 1.549 0 0 1-1.6-1.55v-17.83a1.608 1.608 0 0 1 1.6-1.62h17.588a1.608 1.608 0 0 1 1.6 1.62v17.83a1.549 1.549 0 0 1-1.6 1.55zm-10.331-16.95a5.889 5.889 0 0 0-2.489.46 2.963 2.963 0 0 0-1.3 1.33 4.666 4.666 0 0 0-.347 2.07v.94h-1.555v2.46h1.555v8.17h3.325v-8.17h2.074l.574-2.46h-2.648v-.88a1.25 1.25 0 0 1 1.459-1.55 2.786 2.786 0 0 1 1.414.54l.606-2.32a9.522 9.522 0 0 0-2.668-.59z" transform="translate(-441 -3775)"/></symbol><symbol id="facebook-h" viewBox="0 0 20.78 21"><path id="facebook" class="cls-1" d="M1362.19 42h-17.58a1.557 1.557 0 0 1-1.61-1.551V22.616a1.614 1.614 0 0 1 1.61-1.616h17.58a1.614 1.614 0 0 1 1.61 1.618v17.834a1.557 1.557 0 0 1-1.61 1.548zm-10.33-16.952a5.957 5.957 0 0 0-2.49.459 2.971 2.971 0 0 0-1.3 1.334 4.681 4.681 0 0 0-.34 2.067v.942h-1.56v2.459h1.56v8.168h3.32v-8.168h2.08l.57-2.459h-2.65v-.883a1.73 1.73 0 0 1 .32-1.211 1.721 1.721 0 0 1 1.14-.336 2.757 2.757 0 0 1 1.41.536l.61-2.314a9.3 9.3 0 0 0-2.67-.591z" transform="translate(-1343 -21)"/></symbol><symbol id="facebook" viewBox="0 0 20.78 21"><path id="facebook" class="cls-1" d="M1362.19 42h-17.58a1.557 1.557 0 0 1-1.61-1.551V22.616a1.614 1.614 0 0 1 1.61-1.616h17.58a1.614 1.614 0 0 1 1.61 1.618v17.834a1.557 1.557 0 0 1-1.61 1.548zm-10.33-16.952a5.957 5.957 0 0 0-2.49.459 2.971 2.971 0 0 0-1.3 1.334 4.681 4.681 0 0 0-.34 2.067v.942h-1.56v2.459h1.56v8.168h3.32v-8.168h2.08l.57-2.459h-2.65v-.883a1.73 1.73 0 0 1 .32-1.211 1.721 1.721 0 0 1 1.14-.336 2.757 2.757 0 0 1 1.41.536l.61-2.314a9.3 9.3 0 0 0-2.67-.591z" transform="translate(-1343 -21)"/></symbol><symbol id="gplus-g-h" viewBox="0 0 23.406 20.34"><path id="g_" data-name="g+" class="cls-1" d="M654.344 3780.11v3.61h-1.463v-3.61h-3.656v-1.48h3.656v-3.61h1.463v3.61H658v1.48h-3.656zm-10.113-3.66a3.8 3.8 0 0 1 2.058 3.45 4.006 4.006 0 0 1-1.811 3.11c-1 .77-1.185 1.1-1.185 1.75 0 .56 1.067 1.52 1.624 1.91a4.235 4.235 0 0 1 2.113 3.99c0 2.21-2.113 4.69-6.019 4.69-3.428 0-6.411-1.66-6.411-3.88 0-2.25 2.729-4.42 6.156-4.42.374 0 .716-.01 1.07-.01a2.414 2.414 0 0 1-.84-1.71 2.585 2.585 0 0 1 .313-1.16 5.506 5.506 0 0 1-.572-.01 4.5 4.5 0 0 1-4.7-4.53c0-2.41 2.605-4.63 5.372-4.63h6.171l-1.381 1.45h-1.957zm-2.822 11.18c-2.369-.03-4.491 1.43-4.491 3.19 0 1.79 1.711 3.09 4.08 3.09 3.33 0 4.491-1.21 4.491-3a2.787 2.787 0 0 0-.076-.64c-.26-1.01-1.182-1.51-2.469-2.4a5.008 5.008 0 0 0-1.535-.24zm2.662-7.7c-.275-2.08-1.855-3.74-3.445-3.79s-2.656 1.54-2.381 3.62 1.785 3.79 3.376 3.84 2.724-1.6 2.45-3.67z" transform="translate(-634.594 -3775)"/></symbol><symbol id="gplus-g" viewBox="0 0 23.406 20.34"><path id="g_" data-name="g+" class="cls-1" d="M654.344 3780.11v3.61h-1.463v-3.61h-3.656v-1.48h3.656v-3.61h1.463v3.61H658v1.48h-3.656zm-10.113-3.66a3.8 3.8 0 0 1 2.058 3.45 4.006 4.006 0 0 1-1.811 3.11c-1 .77-1.185 1.1-1.185 1.75 0 .56 1.067 1.52 1.624 1.91a4.235 4.235 0 0 1 2.113 3.99c0 2.21-2.113 4.69-6.019 4.69-3.428 0-6.411-1.66-6.411-3.88 0-2.25 2.729-4.42 6.156-4.42.374 0 .716-.01 1.07-.01a2.414 2.414 0 0 1-.84-1.71 2.585 2.585 0 0 1 .313-1.16 5.506 5.506 0 0 1-.572-.01 4.5 4.5 0 0 1-4.7-4.53c0-2.41 2.605-4.63 5.372-4.63h6.171l-1.381 1.45h-1.957zm-2.822 11.18c-2.369-.03-4.491 1.43-4.491 3.19 0 1.79 1.711 3.09 4.08 3.09 3.33 0 4.491-1.21 4.491-3a2.787 2.787 0 0 0-.076-.64c-.26-1.01-1.182-1.51-2.469-2.4a5.008 5.008 0 0 0-1.535-.24zm2.662-7.7c-.275-2.08-1.855-3.74-3.445-3.79s-2.656 1.54-2.381 3.62 1.785 3.79 3.376 3.84 2.724-1.6 2.45-3.67z" transform="translate(-634.594 -3775)"/></symbol><symbol id="gplus-h" viewBox="0 0 23.41 20.344"><path id="g_" data-name="g+" class="cls-1" d="M1556.34 26.107v3.61h-1.46v-3.61h-3.65v-1.476h3.65v-3.61h1.46v3.61h3.66v1.476h-3.66zm-10.11-3.656a3.794 3.794 0 0 1 2.06 3.449 4.014 4.014 0 0 1-1.81 3.11c-1 .773-1.19 1.1-1.19 1.754 0 .56 1.07 1.515 1.63 1.907a4.227 4.227 0 0 1 2.11 3.985c0 2.215-2.11 4.689-6.02 4.689-3.43 0-6.41-1.659-6.41-3.873 0-2.25 2.73-4.419 6.16-4.419.37 0 .71-.015 1.07-.015a2.393 2.393 0 0 1-.84-1.7 2.588 2.588 0 0 1 .31-1.162c-.19.013-.38-.017-.57-.017a4.5 4.5 0 0 1-4.7-4.524c0-2.413 2.6-4.633 5.37-4.633h6.17l-1.38 1.453h-1.96zm-2.82 11.175c-2.37-.025-4.49 1.435-4.49 3.189 0 1.789 1.71 3.1 4.08 3.1 3.33 0 4.49-1.217 4.49-3.006a2.679 2.679 0 0 0-.08-.633c-.26-1.013-1.18-1.514-2.47-2.4a5.112 5.112 0 0 0-1.53-.249zm2.66-7.7c-.27-2.073-1.85-3.739-3.44-3.786s-2.66 1.54-2.39 3.615 1.79 3.8 3.38 3.842 2.72-1.597 2.45-3.669z" transform="translate(-1536.59 -21)"/></symbol><symbol id="gplus" viewBox="0 0 23.41 20.344"><path id="g_" data-name="g+" class="cls-1" d="M1556.34 26.107v3.61h-1.46v-3.61h-3.65v-1.476h3.65v-3.61h1.46v3.61h3.66v1.476h-3.66zm-10.11-3.656a3.794 3.794 0 0 1 2.06 3.449 4.014 4.014 0 0 1-1.81 3.11c-1 .773-1.19 1.1-1.19 1.754 0 .56 1.07 1.515 1.63 1.907a4.227 4.227 0 0 1 2.11 3.985c0 2.215-2.11 4.689-6.02 4.689-3.43 0-6.41-1.659-6.41-3.873 0-2.25 2.73-4.419 6.16-4.419.37 0 .71-.015 1.07-.015a2.393 2.393 0 0 1-.84-1.7 2.588 2.588 0 0 1 .31-1.162c-.19.013-.38-.017-.57-.017a4.5 4.5 0 0 1-4.7-4.524c0-2.413 2.6-4.633 5.37-4.633h6.17l-1.38 1.453h-1.96zm-2.82 11.175c-2.37-.025-4.49 1.435-4.49 3.189 0 1.789 1.71 3.1 4.08 3.1 3.33 0 4.49-1.217 4.49-3.006a2.679 2.679 0 0 0-.08-.633c-.26-1.013-1.18-1.514-2.47-2.4a5.112 5.112 0 0 0-1.53-.249zm2.66-7.7c-.27-2.073-1.85-3.739-3.44-3.786s-2.66 1.54-2.39 3.615 1.79 3.8 3.38 3.842 2.72-1.597 2.45-3.669z" transform="translate(-1536.59 -21)"/></symbol><symbol id="instagram-g-h" viewBox="0 0 20.812 21"><path id="instagram" class="cls-1" d="M589.55 3796h-15.6a2.614 2.614 0 0 1-2.6-2.62v-15.75a2.617 2.617 0 0 1 2.6-2.63h15.6a2.617 2.617 0 0 1 2.6 2.63v15.75a2.614 2.614 0 0 1-2.6 2.62zm-7.8-14.57a4.03 4.03 0 0 0-3.655 2.36c-.007.02-.012.03-.018.05-.038.08-.072.17-.1.26-.015.05-.032.09-.046.13-.03.09-.054.18-.077.28l-.034.13c-.021.1-.036.2-.05.3 0 .04-.014.08-.018.12a4.324 4.324 0 0 0-.024.44 4.03 4.03 0 1 0 8.06 0 4.324 4.324 0 0 0-.024-.44c0-.04-.013-.08-.018-.12-.014-.1-.029-.2-.05-.3l-.034-.13a2.99 2.99 0 0 0-.077-.28c-.014-.04-.031-.08-.046-.13-.033-.09-.066-.18-.1-.26l-.017-.05a4.03 4.03 0 0 0-3.672-2.36zm8.06-3.02a1.045 1.045 0 0 0-1.04-1.05h-2.08a1.045 1.045 0 0 0-1.04 1.05v2.1a1.045 1.045 0 0 0 1.04 1.05h2.08a1.045 1.045 0 0 0 1.04-1.05v-2.1zm0 5.38h-1.917a6.554 6.554 0 0 1 .227 1.71 6.37 6.37 0 1 1-12.74 0 6.555 6.555 0 0 1 .227-1.71h-1.917v8.8a1.045 1.045 0 0 0 1.04 1.05h14.04a1.045 1.045 0 0 0 1.04-1.05v-8.8z" transform="translate(-571.344 -3775)"/></symbol><symbol id="instagram-g" viewBox="0 0 20.812 21"><path id="instagram" class="cls-1" d="M589.55 3796h-15.6a2.614 2.614 0 0 1-2.6-2.62v-15.75a2.617 2.617 0 0 1 2.6-2.63h15.6a2.617 2.617 0 0 1 2.6 2.63v15.75a2.614 2.614 0 0 1-2.6 2.62zm-7.8-14.57a4.03 4.03 0 0 0-3.655 2.36c-.007.02-.012.03-.018.05-.038.08-.072.17-.1.26-.015.05-.032.09-.046.13-.03.09-.054.18-.077.28l-.034.13c-.021.1-.036.2-.05.3 0 .04-.014.08-.018.12a4.324 4.324 0 0 0-.024.44 4.03 4.03 0 1 0 8.06 0 4.324 4.324 0 0 0-.024-.44c0-.04-.013-.08-.018-.12-.014-.1-.029-.2-.05-.3l-.034-.13a2.99 2.99 0 0 0-.077-.28c-.014-.04-.031-.08-.046-.13-.033-.09-.066-.18-.1-.26l-.017-.05a4.03 4.03 0 0 0-3.672-2.36zm8.06-3.02a1.045 1.045 0 0 0-1.04-1.05h-2.08a1.045 1.045 0 0 0-1.04 1.05v2.1a1.045 1.045 0 0 0 1.04 1.05h2.08a1.045 1.045 0 0 0 1.04-1.05v-2.1zm0 5.38h-1.917a6.554 6.554 0 0 1 .227 1.71 6.37 6.37 0 1 1-12.74 0 6.555 6.555 0 0 1 .227-1.71h-1.917v8.8a1.045 1.045 0 0 0 1.04 1.05h14.04a1.045 1.045 0 0 0 1.04-1.05v-8.8z" transform="translate(-571.344 -3775)"/></symbol><symbol id="instagram-h" viewBox="0 0 20.82 21"><path id="instagram" class="cls-1" d="M1491.55 42h-15.6a2.61 2.61 0 0 1-2.6-2.625v-15.75a2.61 2.61 0 0 1 2.6-2.625h15.6a2.61 2.61 0 0 1 2.6 2.625v15.75a2.61 2.61 0 0 1-2.6 2.625zm-7.8-14.569a4.01 4.01 0 0 0-3.65 2.362h-.01c-.01.015-.01.03-.02.045-.03.086-.07.175-.1.264-.02.043-.03.085-.05.128a2.634 2.634 0 0 0-.07.278.656.656 0 0 0-.04.131c-.02.1-.03.2-.05.3a.527.527 0 0 1-.02.123c-.01.143-.02.288-.02.435a4.03 4.03 0 1 0 8.06 0c0-.147-.01-.292-.02-.435a.527.527 0 0 1-.02-.123c-.02-.1-.03-.2-.05-.3a.656.656 0 0 0-.04-.131 2.634 2.634 0 0 0-.07-.278c-.02-.043-.03-.085-.05-.128-.03-.089-.07-.177-.1-.264-.01-.015-.01-.03-.02-.045h-.01a4.01 4.01 0 0 0-3.65-2.361zm8.06-3.019a1.047 1.047 0 0 0-1.04-1.05h-2.08a1.047 1.047 0 0 0-1.04 1.05v2.1a1.048 1.048 0 0 0 1.04 1.05h2.08a1.048 1.048 0 0 0 1.04-1.05v-2.1zm0 5.381h-1.92a6.37 6.37 0 1 1-12.28 0h-1.92v8.794a1.048 1.048 0 0 0 1.04 1.05h14.04a1.048 1.048 0 0 0 1.04-1.05v-8.793z" transform="translate(-1473.34 -21)"/></symbol><symbol id="instagram" viewBox="0 0 20.82 21"><path id="instagram" class="cls-1" d="M1491.55 42h-15.6a2.61 2.61 0 0 1-2.6-2.625v-15.75a2.61 2.61 0 0 1 2.6-2.625h15.6a2.61 2.61 0 0 1 2.6 2.625v15.75a2.61 2.61 0 0 1-2.6 2.625zm-7.8-14.569a4.01 4.01 0 0 0-3.65 2.362h-.01c-.01.015-.01.03-.02.045-.03.086-.07.175-.1.264-.02.043-.03.085-.05.128a2.634 2.634 0 0 0-.07.278.656.656 0 0 0-.04.131c-.02.1-.03.2-.05.3a.527.527 0 0 1-.02.123c-.01.143-.02.288-.02.435a4.03 4.03 0 1 0 8.06 0c0-.147-.01-.292-.02-.435a.527.527 0 0 1-.02-.123c-.02-.1-.03-.2-.05-.3a.656.656 0 0 0-.04-.131 2.634 2.634 0 0 0-.07-.278c-.02-.043-.03-.085-.05-.128-.03-.089-.07-.177-.1-.264-.01-.015-.01-.03-.02-.045h-.01a4.01 4.01 0 0 0-3.65-2.361zm8.06-3.019a1.047 1.047 0 0 0-1.04-1.05h-2.08a1.047 1.047 0 0 0-1.04 1.05v2.1a1.048 1.048 0 0 0 1.04 1.05h2.08a1.048 1.048 0 0 0 1.04-1.05v-2.1zm0 5.381h-1.92a6.37 6.37 0 1 1-12.28 0h-1.92v8.794a1.048 1.048 0 0 0 1.04 1.05h14.04a1.048 1.048 0 0 0 1.04-1.05v-8.793z" transform="translate(-1473.34 -21)"/></symbol><symbol id="jobs-h" viewBox="0 0 18.062 21.031"><path id="icon" class="cls-1" d="M558.464 48.6h-12.9a2.605 2.605 0 0 1-2.581-2.629V32.828a2.606 2.606 0 0 1 2.581-2.629h1.936v-1.313h1.737a3.593 3.593 0 0 1 5.556 0h1.738V30.2h1.935a2.6 2.6 0 0 1 2.58 2.629v13.143a2.6 2.6 0 0 1-2.582 2.628zm-3.225-18.4H553.8a1.879 1.879 0 0 0-3.584 0h-1.433v2.629h6.451V30.2zm4.515 2.629a1.3 1.3 0 0 0-1.29-1.314h-1.935v2.628H547.5v-2.628h-1.935a1.3 1.3 0 0 0-1.29 1.314v13.143a1.3 1.3 0 0 0 1.29 1.314h12.9a1.3 1.3 0 0 0 1.29-1.314V32.828zm-3.225 11.829H547.5a.657.657 0 0 1 0-1.314h9.031a.657.657 0 0 1-.002 1.313zm0-3.286H547.5a.657.657 0 0 1 0-1.314h9.031a.657.657 0 0 1-.002 1.314zm0-3.285H547.5a.657.657 0 0 1 0-1.315h9.031a.657.657 0 0 1-.002 1.314z" transform="translate(-542.969 -27.563)"/></symbol><symbol id="jobs" viewBox="0 0 18.062 21.031"><path id="icon" class="cls-1" d="M547.464 41.6h-12.9a2.605 2.605 0 0 1-2.581-2.629V25.828a2.606 2.606 0 0 1 2.581-2.629h1.936v-1.313h1.737a3.593 3.593 0 0 1 5.556 0h1.738V23.2h1.935a2.6 2.6 0 0 1 2.58 2.629v13.143a2.6 2.6 0 0 1-2.582 2.628zm-3.225-18.4H542.8a1.879 1.879 0 0 0-3.584 0h-1.433v2.629h6.451V23.2zm4.515 2.629a1.3 1.3 0 0 0-1.29-1.314h-1.935v2.628H536.5v-2.628h-1.935a1.3 1.3 0 0 0-1.29 1.314v13.143a1.3 1.3 0 0 0 1.29 1.314h12.9a1.3 1.3 0 0 0 1.29-1.314V25.828zm-3.225 11.829H536.5a.657.657 0 0 1 0-1.314h9.031a.657.657 0 0 1-.002 1.313zm0-3.286H536.5a.657.657 0 0 1 0-1.314h9.031a.657.657 0 0 1-.002 1.314zm0-3.285H536.5a.657.657 0 0 1 0-1.315h9.031a.657.657 0 0 1-.002 1.314z" transform="translate(-531.969 -20.563)"/></symbol><symbol id="language-h" viewBox="0 0 18.062 18.281"><path id="icon" class="cls-1" d="M759.723 48.6a9.144 9.144 0 1 1 9.03-9.143 9.088 9.088 0 0 1-9.03 9.143zm6.545-4.669a8 8 0 0 0 1.335-3.9h-4.518a22.475 22.475 0 0 1-.283 3.09 19.635 19.635 0 0 1 3.466.81zm-8.777-3.9a20.074 20.074 0 0 0 .291 2.947c.635-.056 1.281-.089 1.941-.089s1.305.033 1.94.089a20.074 20.074 0 0 0 .291-2.947h-4.463zm4.463-1.143a20.067 20.067 0 0 0-.291-2.947c-.635.056-1.281.089-1.94.089s-1.306-.033-1.941-.089a20.067 20.067 0 0 0-.291 2.947h4.463zm3.536 6.03a18.532 18.532 0 0 0-2.909-.671 18.758 18.758 0 0 1-.92 2.959 7.893 7.893 0 0 0 3.829-2.29zm-6.315 2.513c.181.013.363.028.548.028s.366-.015.547-.028a17.173 17.173 0 0 0 1.158-3.335c-.561-.049-1.13-.079-1.705-.079s-1.145.03-1.706.079a17.173 17.173 0 0 0 1.158 3.333zm-1.391-.224a18.758 18.758 0 0 1-.92-2.959 18.532 18.532 0 0 0-2.909.671 7.893 7.893 0 0 0 3.829 2.281zm-1.141-4.086a22.475 22.475 0 0 1-.283-3.09h-4.518a7.993 7.993 0 0 0 1.336 3.9 19.6 19.6 0 0 1 3.465-.812zm-3.465-8.135a7.992 7.992 0 0 0-1.336 3.9h4.518a22.474 22.474 0 0 1 .283-3.09 19.576 19.576 0 0 1-3.465-.813zm.777-.986a18.6 18.6 0 0 0 2.909.671 18.781 18.781 0 0 1 .92-2.96A7.894 7.894 0 0 0 753.955 34zm6.315-2.513c-.181-.013-.362-.028-.547-.028s-.367.015-.548.028a17.19 17.19 0 0 0-1.158 3.335c.561.05 1.13.079 1.706.079s1.144-.03 1.705-.079a17.19 17.19 0 0 0-1.158-3.337zm1.391.224a18.781 18.781 0 0 1 .92 2.96A18.573 18.573 0 0 0 765.49 34a7.894 7.894 0 0 0-3.829-2.29zM762.8 35.8a22.474 22.474 0 0 1 .283 3.09h4.517a8 8 0 0 0-1.335-3.9 19.608 19.608 0 0 1-3.465.81z" transform="translate(-750.688 -30.313)"/></symbol><symbol id="language" viewBox="0 0 18.062 18.281"><path id="icon" class="cls-1" d="M748.723 41.6a9.144 9.144 0 1 1 9.03-9.143 9.088 9.088 0 0 1-9.03 9.143zm6.545-4.669a8 8 0 0 0 1.335-3.9h-4.518a22.475 22.475 0 0 1-.283 3.09 19.635 19.635 0 0 1 3.466.81zm-8.777-3.9a20.074 20.074 0 0 0 .291 2.947c.635-.056 1.281-.089 1.941-.089s1.305.033 1.94.089a20.074 20.074 0 0 0 .291-2.947h-4.463zm4.463-1.143a20.067 20.067 0 0 0-.291-2.947c-.635.056-1.281.089-1.94.089s-1.306-.033-1.941-.089a20.067 20.067 0 0 0-.291 2.947h4.463zm3.536 6.03a18.532 18.532 0 0 0-2.909-.671 18.758 18.758 0 0 1-.92 2.959 7.893 7.893 0 0 0 3.829-2.29zm-6.315 2.513c.181.013.363.028.548.028s.366-.015.547-.028a17.173 17.173 0 0 0 1.158-3.335c-.561-.049-1.13-.079-1.705-.079s-1.145.03-1.706.079a17.173 17.173 0 0 0 1.158 3.333zm-1.391-.224a18.758 18.758 0 0 1-.92-2.959 18.532 18.532 0 0 0-2.909.671 7.893 7.893 0 0 0 3.829 2.281zm-1.141-4.086a22.475 22.475 0 0 1-.283-3.09h-4.518a7.993 7.993 0 0 0 1.336 3.9 19.6 19.6 0 0 1 3.465-.812zm-3.465-8.135a7.992 7.992 0 0 0-1.336 3.9h4.518a22.474 22.474 0 0 1 .283-3.09 19.576 19.576 0 0 1-3.465-.813zm.777-.986a18.6 18.6 0 0 0 2.909.671 18.781 18.781 0 0 1 .92-2.96A7.894 7.894 0 0 0 742.955 27zm6.315-2.513c-.181-.013-.362-.028-.547-.028s-.367.015-.548.028a17.19 17.19 0 0 0-1.158 3.335c.561.05 1.13.079 1.706.079s1.144-.03 1.705-.079a17.19 17.19 0 0 0-1.158-3.337zm1.391.224a18.781 18.781 0 0 1 .92 2.96A18.573 18.573 0 0 0 754.49 27a7.894 7.894 0 0 0-3.829-2.29zM751.8 28.8a22.474 22.474 0 0 1 .283 3.09h4.517a8 8 0 0 0-1.335-3.9 19.608 19.608 0 0 1-3.465.81z" transform="translate(-739.688 -23.313)"/></symbol><symbol id="like-b" viewBox="0 0 32 27.97"><path id="icon" class="cls-1" d="M1282.2 1116.11a9.653 9.653 0 0 0-13.2-.29 9.64 9.64 0 0 0-13.19.29 9.392 9.392 0 0 0 0 13.39c1.07 1.06 11.05 10.93 11.05 10.93a3.048 3.048 0 0 0 4.28 0s10.93-10.81 11.06-10.93a9.392 9.392 0 0 0 0-13.39zm-1.43 11.98l-11.05 10.93a1.02 1.02 0 0 1-1.43 0l-11.05-10.93a7.418 7.418 0 0 1 0-10.57 7.6 7.6 0 0 1 10.41-.22l1.35 1.22 1.36-1.22a7.6 7.6 0 0 1 10.41.22 7.418 7.418 0 0 1 0 10.57zm-18.51-9.75a.01.01 0 0 0-.01.01 4.242 4.242 0 0 0-4.24 4.24.5.5 0 0 0 .5.5.508.508 0 0 0 .5-.5 3.248 3.248 0 0 1 3.24-3.25h.01a.5.5 0 0 0 .5-.5.508.508 0 0 0-.5-.5z" transform="translate(-1253 -1113.34)"/></symbol><symbol id="like-g" viewBox="0 0 32 27.97"><path id="icon" class="cls-1" d="M980.2 1083.11a9.643 9.643 0 0 0-13.192-.29 9.643 9.643 0 0 0-13.192.29 9.391 9.391 0 0 0 0 13.39c1.069 1.06 11.053 10.93 11.053 10.93a3.046 3.046 0 0 0 4.278 0l11.053-10.93a9.391 9.391 0 0 0 0-13.39zm-1.427 11.98l-11.053 10.93a1.014 1.014 0 0 1-1.425 0l-11.052-10.93a7.418 7.418 0 0 1 0-10.57 7.6 7.6 0 0 1 10.409-.22l1.356 1.22 1.356-1.22a7.6 7.6 0 0 1 10.409.22 7.418 7.418 0 0 1-.004 10.57zm-18.514-9.75v.01a4.245 4.245 0 0 0-4.246 4.24.5.5 0 0 0 1 0 3.254 3.254 0 0 1 3.249-3.25.5.5 0 0 0 .5-.5.5.5 0 0 0-.507-.5z" transform="translate(-951 -1080.34)"/></symbol><symbol id="mail-h" viewBox="0 0 29.34 23.656"><path id="icon" class="cls-1" d="M1543.33 218.271h-22.02a3.652 3.652 0 0 1-3.67-3.638V198.26a3.651 3.651 0 0 1 3.67-3.637h22.02a3.651 3.651 0 0 1 3.67 3.637v16.373a3.652 3.652 0 0 1-3.67 3.638zm-21.1-21.829l10.09 8.7 10.09-8.7h-20.18zm22.94 1.818a1.8 1.8 0 0 0-.59-1.323l-12.26 10.419-12.26-10.419a1.787 1.787 0 0 0-.58 1.323v16.373a1.825 1.825 0 0 0 1.83 1.819h22.02a1.834 1.834 0 0 0 1.84-1.819V198.26z" transform="translate(-1517.66 -194.625)"/></symbol><symbol id="mail" viewBox="0 0 29.34 23.656"><path id="icon" class="cls-1" d="M1543.33 218.271h-22.02a3.652 3.652 0 0 1-3.67-3.638V198.26a3.651 3.651 0 0 1 3.67-3.637h22.02a3.651 3.651 0 0 1 3.67 3.637v16.373a3.652 3.652 0 0 1-3.67 3.638zm-21.1-21.829l10.09 8.7 10.09-8.7h-20.18zm22.94 1.818a1.8 1.8 0 0 0-.59-1.323l-12.26 10.419-12.26-10.419a1.787 1.787 0 0 0-.58 1.323v16.373a1.825 1.825 0 0 0 1.83 1.819h22.02a1.834 1.834 0 0 0 1.84-1.819V198.26z" transform="translate(-1517.66 -194.625)"/></symbol><symbol id="more-h" viewBox="0 0 24 24"><path id="more" class="cls-1" d="M633.435 3258.57h-8.87v8.86a1.565 1.565 0 1 1-3.13 0v-8.86h-8.87a1.57 1.57 0 0 1 0-3.14h8.87v-8.86a1.565 1.565 0 1 1 3.13 0v8.86h8.87a1.57 1.57 0 0 1 0 3.14z" transform="translate(-611 -3245)"/></symbol><symbol id="more" viewBox="0 0 24 24"><path id="more" class="cls-1" d="M633.435 3258.57h-8.87v8.86a1.565 1.565 0 1 1-3.13 0v-8.86h-8.87a1.57 1.57 0 0 1 0-3.14h8.87v-8.86a1.565 1.565 0 1 1 3.13 0v8.86h8.87a1.57 1.57 0 0 1 0 3.14z" transform="translate(-611 -3245)"/></symbol><symbol id="nav-h" viewBox="0 0 24.97 34"><path id="icon" class="cls-1" d="M1459.46 224c-2.07.011-12.48-15.917-12.48-21.247a12.483 12.483 0 1 1 24.96 0c0 5.254-10.44 21.253-12.48 21.247zm0-31.87a10.516 10.516 0 0 0-10.4 10.623c0 4.442 8.67 18.069 10.4 18.06 1.7.009 10.4-13.678 10.4-18.06a10.516 10.516 0 0 0-10.4-10.628zm0 15.935a5.313 5.313 0 1 1 5.2-5.312 5.259 5.259 0 0 1-5.2 5.307zm0-8.5a3.188 3.188 0 1 0 3.12 3.187 3.156 3.156 0 0 0-3.12-3.191z" transform="translate(-1446.97 -190)"/></symbol><symbol id="nav" viewBox="0 0 24.97 34"><path id="icon" class="cls-1" d="M1459.46 224c-2.07.011-12.48-15.917-12.48-21.247a12.483 12.483 0 1 1 24.96 0c0 5.254-10.44 21.253-12.48 21.247zm0-31.87a10.516 10.516 0 0 0-10.4 10.623c0 4.442 8.67 18.069 10.4 18.06 1.7.009 10.4-13.678 10.4-18.06a10.516 10.516 0 0 0-10.4-10.628zm0 15.935a5.313 5.313 0 1 1 5.2-5.312 5.259 5.259 0 0 1-5.2 5.307zm0-8.5a3.188 3.188 0 1 0 3.12 3.187 3.156 3.156 0 0 0-3.12-3.191z" transform="translate(-1446.97 -190)"/></symbol><symbol id="phone-h" viewBox="0 0 27.88 28.093"><path id="icon" class="cls-1" d="M1375.41 193.606l-2.58 2.6c-1.42 1.436-.74 3.15 0 5.2a61.385 61.385 0 0 0 8.14 10.714 55.137 55.137 0 0 0 10.58 8.136c1.88.975 3.73 1.436 5.16 0l2.58-2.6a1.721 1.721 0 0 0 0-2.6l-5.16-3.9a1.932 1.932 0 0 0-2.58 0l-1.53 1.538a51.908 51.908 0 0 1-5.57-4.788 43.882 43.882 0 0 1-4.16-4.909l1.58-1.591a1.974 1.974 0 0 0 0-2.6l-3.88-5.2a1.814 1.814 0 0 0-2.58 0m2.51 9.179l2.07-2.088a1.254 1.254 0 0 0 0-1.655l-2.47-3.309a1.04 1.04 0 0 0-1.64 0l-1.64 1.655c-.65.61-.46 2.033-.12 2.718a54.855 54.855 0 0 0 7.75 10.4c3.26 3.57 10.97 8.45 10.97 8.45a3.277 3.277 0 0 0 2.7-.118l1.64-1.655a1.25 1.25 0 0 0 0-1.654l-3.29-2.482a1.227 1.227 0 0 0-1.64 0l-2.02 2.038c-.48-.338-8.08-5.372-12.31-12.3z" transform="translate(-1372 -193.063)"/></symbol><symbol id="phone" viewBox="0 0 27.88 28.093"><path id="icon" class="cls-1" d="M1375.41 193.606l-2.58 2.6c-1.42 1.436-.74 3.15 0 5.2a61.385 61.385 0 0 0 8.14 10.714 55.137 55.137 0 0 0 10.58 8.136c1.88.975 3.73 1.436 5.16 0l2.58-2.6a1.721 1.721 0 0 0 0-2.6l-5.16-3.9a1.932 1.932 0 0 0-2.58 0l-1.53 1.538a51.908 51.908 0 0 1-5.57-4.788 43.882 43.882 0 0 1-4.16-4.909l1.58-1.591a1.974 1.974 0 0 0 0-2.6l-3.88-5.2a1.814 1.814 0 0 0-2.58 0m2.51 9.179l2.07-2.088a1.254 1.254 0 0 0 0-1.655l-2.47-3.309a1.04 1.04 0 0 0-1.64 0l-1.64 1.655c-.65.61-.46 2.033-.12 2.718a54.855 54.855 0 0 0 7.75 10.4c3.26 3.57 10.97 8.45 10.97 8.45a3.277 3.277 0 0 0 2.7-.118l1.64-1.655a1.25 1.25 0 0 0 0-1.654l-3.29-2.482a1.227 1.227 0 0 0-1.64 0l-2.02 2.038c-.48-.338-8.08-5.372-12.31-12.3z" transform="translate(-1372 -193.063)"/></symbol><symbol id="share-h" viewBox="0 0 22.969 23"><path id="link" class="cls-1" d="M797.674 3253.74l-3.2 3.21a4.5 4.5 0 0 1-4.394 1.16l2.673-2.67a.909.909 0 0 0 .12-.1l3.2-3.2a2.267 2.267 0 0 0-3.2-3.21l-3.2 3.21-2.769 2.76a4.541 4.541 0 0 1 1.171-4.37l3.2-3.2a4.53 4.53 0 1 1 6.399 6.41zm-13.169 8.42a1.15 1.15 0 1 1-1.6-1.65l7.611-7.6a1.128 1.128 0 0 1 .84-.37 1.147 1.147 0 0 1 1.151 1.15 1.123 1.123 0 0 1-.332.8v.01zm-2.373-2.5l-3.2 3.2a2.267 2.267 0 0 0 3.2 3.21l3.2-3.21a.39.39 0 0 0 .06-.07l2.709-2.7a4.531 4.531 0 0 1-1.168 4.38l-3.2 3.21a4.534 4.534 0 1 1-6.4-6.42l3.2-3.21a4.528 4.528 0 0 1 4.381-1.16l-2.757 2.75c-.009.01-.018.01-.025.02z" transform="translate(-776.031 -3246)"/></symbol><symbol id="share" viewBox="0 0 22.969 23"><path id="link" class="cls-1" d="M797.674 3253.74l-3.2 3.21a4.5 4.5 0 0 1-4.394 1.16l2.673-2.67a.909.909 0 0 0 .12-.1l3.2-3.2a2.267 2.267 0 0 0-3.2-3.21l-3.2 3.21-2.769 2.76a4.541 4.541 0 0 1 1.171-4.37l3.2-3.2a4.53 4.53 0 1 1 6.399 6.41zm-13.169 8.42a1.15 1.15 0 1 1-1.6-1.65l7.611-7.6a1.128 1.128 0 0 1 .84-.37 1.147 1.147 0 0 1 1.151 1.15 1.123 1.123 0 0 1-.332.8v.01zm-2.373-2.5l-3.2 3.2a2.267 2.267 0 0 0 3.2 3.21l3.2-3.21a.39.39 0 0 0 .06-.07l2.709-2.7a4.531 4.531 0 0 1-1.168 4.38l-3.2 3.21a4.534 4.534 0 1 1-6.4-6.42l3.2-3.21a4.528 4.528 0 0 1 4.381-1.16l-2.757 2.75c-.009.01-.018.01-.025.02z" transform="translate(-776.031 -3246)"/></symbol><symbol id="support-h" viewBox="0 0 17.156 16.469"><path id="icon" class="cls-1" d="M662.923 45.491L658.1 42.2h-4.289v4.389a1.085 1.085 0 0 1-1.073 1.1h-1.608a1.085 1.085 0 0 1-1.073-1.1V42.2a.914.914 0 0 1 .011-.1 3.712 3.712 0 0 1-3.228-3.735c0-2.424 1.921-3.84 4.29-3.84h6.97l4.826-3.291a1.085 1.085 0 0 1 1.073 1.1v12.06a1.085 1.085 0 0 1-1.076 1.097zm-11.8.549a.543.543 0 0 0 .536.549h.541a.543.543 0 0 0 .536-.549V42.2h-1.608v3.84zm0-10.422c-1.1-.036-3.218.319-3.218 2.742s2.152 2.743 3.218 2.743h4.289v-5.486h-4.289zm6.97 4.345v-4.346h-1.608V41.1h1.615v-1.14zm4.826 3.06v-10.7l-3.753 2.743v6.583l3.753 2.743v-1.369z" transform="translate(-646.844 -31.219)"/></symbol><symbol id="support" viewBox="0 0 17.156 16.469"><path id="icon" class="cls-1" d="M651.923 38.491L647.1 35.2h-4.289v4.389a1.085 1.085 0 0 1-1.073 1.1h-1.608a1.085 1.085 0 0 1-1.073-1.1V35.2a.914.914 0 0 1 .011-.1 3.712 3.712 0 0 1-3.228-3.735c0-2.424 1.921-3.84 4.29-3.84h6.97l4.826-3.291a1.085 1.085 0 0 1 1.073 1.1v12.06a1.085 1.085 0 0 1-1.076 1.097zm-11.8.549a.543.543 0 0 0 .536.549h.541a.543.543 0 0 0 .536-.549V35.2h-1.608v3.84zm0-10.423c-1.1-.036-3.218.319-3.218 2.742s2.152 2.743 3.218 2.743h4.289v-5.485h-4.289zm6.97 4.345v-4.345h-1.608V34.1h1.615v-1.14zm4.826 3.06v-10.7l-3.753 2.743v6.583l3.753 2.743v-1.368z" transform="translate(-635.844 -24.219)"/></symbol><symbol id="twitter-g-h" viewBox="0 0 24.718 20.34"><path id="twitter" class="cls-1" d="M522 3775.66a5.163 5.163 0 0 1 4 1.61 7.9 7.9 0 0 0 2.6-.89c.21-.11.42-.23.631-.35a5.179 5.179 0 0 1-1.645 2.42 2.7 2.7 0 0 1-.556.4v.01a9.434 9.434 0 0 0 2.868-.79v.01a8.488 8.488 0 0 1-1.718 2.01l-.791.63a15.073 15.073 0 0 1-.235 3.31c-1.266 5.77-4.619 9.69-9.927 11.37a15 15 0 0 1-7.17.3 18.759 18.759 0 0 1-2.98-.99 12.274 12.274 0 0 1-1.434-.75c-.148-.09-.3-.19-.445-.28a7.814 7.814 0 0 0 1.62.07c.5-.09.986-.06 1.446-.17a10.151 10.151 0 0 0 3.041-1.11 5.687 5.687 0 0 0 1.372-.91 4.284 4.284 0 0 1-1.508-.28 5.141 5.141 0 0 1-3.214-3.29 4.845 4.845 0 0 0 2.262-.1 3.644 3.644 0 0 1-1.656-.67 4.979 4.979 0 0 1-2.386-4.41c.173.09.346.17.519.25a5.422 5.422 0 0 0 1.063.3 1.462 1.462 0 0 0 .692.07h-.024c-.256-.31-.671-.51-.928-.83a5.32 5.32 0 0 1-1.137-4.67 5.976 5.976 0 0 1 .544-1.33.028.028 0 0 1 .025.01 3.3 3.3 0 0 0 .457.54 9.429 9.429 0 0 0 1.508 1.46 14.843 14.843 0 0 0 6.194 3.04 9.47 9.47 0 0 0 2.275.3 4.831 4.831 0 0 1 .024-2.41 5.078 5.078 0 0 1 2.868-3.46 6.27 6.27 0 0 1 1.125-.35c.208-.02.415-.05.62-.07z" transform="translate(-505.188 -3775.66)"/></symbol><symbol id="twitter-g" viewBox="0 0 24.718 20.34"><path id="twitter" class="cls-1" d="M522 3775.66a5.163 5.163 0 0 1 4 1.61 7.9 7.9 0 0 0 2.6-.89c.21-.11.42-.23.631-.35a5.179 5.179 0 0 1-1.645 2.42 2.7 2.7 0 0 1-.556.4v.01a9.434 9.434 0 0 0 2.868-.79v.01a8.488 8.488 0 0 1-1.718 2.01l-.791.63a15.073 15.073 0 0 1-.235 3.31c-1.266 5.77-4.619 9.69-9.927 11.37a15 15 0 0 1-7.17.3 18.759 18.759 0 0 1-2.98-.99 12.274 12.274 0 0 1-1.434-.75c-.148-.09-.3-.19-.445-.28a7.814 7.814 0 0 0 1.62.07c.5-.09.986-.06 1.446-.17a10.151 10.151 0 0 0 3.041-1.11 5.687 5.687 0 0 0 1.372-.91 4.284 4.284 0 0 1-1.508-.28 5.141 5.141 0 0 1-3.214-3.29 4.845 4.845 0 0 0 2.262-.1 3.644 3.644 0 0 1-1.656-.67 4.979 4.979 0 0 1-2.386-4.41c.173.09.346.17.519.25a5.422 5.422 0 0 0 1.063.3 1.462 1.462 0 0 0 .692.07h-.024c-.256-.31-.671-.51-.928-.83a5.32 5.32 0 0 1-1.137-4.67 5.976 5.976 0 0 1 .544-1.33.028.028 0 0 1 .025.01 3.3 3.3 0 0 0 .457.54 9.429 9.429 0 0 0 1.508 1.46 14.843 14.843 0 0 0 6.194 3.04 9.47 9.47 0 0 0 2.275.3 4.831 4.831 0 0 1 .024-2.41 5.078 5.078 0 0 1 2.868-3.46 6.27 6.27 0 0 1 1.125-.35c.208-.02.415-.05.62-.07z" transform="translate(-505.188 -3775.66)"/></symbol><symbol id="twitter-h" viewBox="0 0 24.72 20.344"><path id="twitter" class="cls-1" d="M1424 21.658a5.19 5.19 0 0 1 4.01 1.613 8.154 8.154 0 0 0 2.59-.888l.63-.35a5.147 5.147 0 0 1-1.64 2.414 2.317 2.317 0 0 1-.56.4v.013a9.4 9.4 0 0 0 2.87-.788v.012a8.1 8.1 0 0 1-1.72 2c-.26.212-.53.425-.79.638a15.73 15.73 0 0 1-.23 3.3c-1.27 5.773-4.62 9.692-9.93 11.371a14.961 14.961 0 0 1-7.17.3 18.5 18.5 0 0 1-2.98-.988 11.619 11.619 0 0 1-1.43-.751l-.45-.275a8.169 8.169 0 0 0 1.62.063c.5-.081.99-.06 1.45-.163a10.376 10.376 0 0 0 3.04-1.113 5.691 5.691 0 0 0 1.37-.913 4.235 4.235 0 0 1-1.51-.275 5.12 5.12 0 0 1-3.21-3.29 4.962 4.962 0 0 0 2.26-.1 3.67 3.67 0 0 1-1.66-.676 4.952 4.952 0 0 1-2.38-4.4c.17.083.34.167.52.25a5.309 5.309 0 0 0 1.06.3 1.5 1.5 0 0 0 .69.063h-.02c-.26-.3-.67-.5-.93-.826a5.3 5.3 0 0 1-1.14-4.666 5.928 5.928 0 0 1 .55-1.339.035.035 0 0 0 .02.013 3.182 3.182 0 0 0 .46.538 9.02 9.02 0 0 0 1.51 1.463 14.8 14.8 0 0 0 6.19 3.04 9.537 9.537 0 0 0 2.27.3 4.931 4.931 0 0 1 .03-2.415 5.046 5.046 0 0 1 2.87-3.452 5.937 5.937 0 0 1 1.12-.35z" transform="translate(-1407.19 -21.656)"/></symbol><symbol id="twitter" viewBox="0 0 24.72 20.344"><path id="twitter" class="cls-1" d="M1424 21.658a5.19 5.19 0 0 1 4.01 1.613 8.154 8.154 0 0 0 2.59-.888l.63-.35a5.147 5.147 0 0 1-1.64 2.414 2.317 2.317 0 0 1-.56.4v.013a9.4 9.4 0 0 0 2.87-.788v.012a8.1 8.1 0 0 1-1.72 2c-.26.212-.53.425-.79.638a15.73 15.73 0 0 1-.23 3.3c-1.27 5.773-4.62 9.692-9.93 11.371a14.961 14.961 0 0 1-7.17.3 18.5 18.5 0 0 1-2.98-.988 11.619 11.619 0 0 1-1.43-.751l-.45-.275a8.169 8.169 0 0 0 1.62.063c.5-.081.99-.06 1.45-.163a10.376 10.376 0 0 0 3.04-1.113 5.691 5.691 0 0 0 1.37-.913 4.235 4.235 0 0 1-1.51-.275 5.12 5.12 0 0 1-3.21-3.29 4.962 4.962 0 0 0 2.26-.1 3.67 3.67 0 0 1-1.66-.676 4.952 4.952 0 0 1-2.38-4.4c.17.083.34.167.52.25a5.309 5.309 0 0 0 1.06.3 1.5 1.5 0 0 0 .69.063h-.02c-.26-.3-.67-.5-.93-.826a5.3 5.3 0 0 1-1.14-4.666 5.928 5.928 0 0 1 .55-1.339.035.035 0 0 0 .02.013 3.182 3.182 0 0 0 .46.538 9.02 9.02 0 0 0 1.51 1.463 14.8 14.8 0 0 0 6.19 3.04 9.537 9.537 0 0 0 2.27.3 4.931 4.931 0 0 1 .03-2.415 5.046 5.046 0 0 1 2.87-3.452 5.937 5.937 0 0 1 1.12-.35z" transform="translate(-1407.19 -21.656)"/></symbol></svg>