<svg xmlns="http://www.w3.org/2000/svg" width="24.718" height="20.34" viewBox="0 0 24.718 20.34"><defs><style>.cls-1{fill:#414344;fill-rule:evenodd}</style></defs><path id="twitter" class="cls-1" d="M522 3775.66a5.163 5.163 0 0 1 4 1.61 7.9 7.9 0 0 0 2.6-.89c.21-.11.42-.23.631-.35a5.179 5.179 0 0 1-1.645 2.42 2.7 2.7 0 0 1-.556.4v.01a9.434 9.434 0 0 0 2.868-.79v.01a8.488 8.488 0 0 1-1.718 2.01l-.791.63a15.073 15.073 0 0 1-.235 3.31c-1.266 5.77-4.619 9.69-9.927 11.37a15 15 0 0 1-7.17.3 18.759 18.759 0 0 1-2.98-.99 12.274 12.274 0 0 1-1.434-.75c-.148-.09-.3-.19-.445-.28a7.814 7.814 0 0 0 1.62.07c.5-.09.986-.06 1.446-.17a10.151 10.151 0 0 0 3.041-1.11 5.687 5.687 0 0 0 1.372-.91 4.284 4.284 0 0 1-1.508-.28 5.141 5.141 0 0 1-3.214-3.29 4.845 4.845 0 0 0 2.262-.1 3.644 3.644 0 0 1-1.656-.67 4.979 4.979 0 0 1-2.386-4.41c.173.09.346.17.519.25a5.422 5.422 0 0 0 1.063.3 1.462 1.462 0 0 0 .692.07h-.024c-.256-.31-.671-.51-.928-.83a5.32 5.32 0 0 1-1.137-4.67 5.976 5.976 0 0 1 .544-1.33.028.028 0 0 1 .025.01 3.3 3.3 0 0 0 .457.54 9.429 9.429 0 0 0 1.508 1.46 14.843 14.843 0 0 0 6.194 3.04 9.47 9.47 0 0 0 2.275.3 4.831 4.831 0 0 1 .024-2.41 5.078 5.078 0 0 1 2.868-3.46 6.27 6.27 0 0 1 1.125-.35c.208-.02.415-.05.62-.07z" transform="translate(-505.188 -3775.66)"/></svg>