<svg xmlns="http://www.w3.org/2000/svg" width="18.063" height="18.281" viewBox="0 0 18.063 18.281">
  <metadata><?xpacket begin="﻿" id="W5M0MpCehiHzreSzNTczkc9d"?>
<x:xmpmeta xmlns:x="adobe:ns:meta/" x:xmptk="Adobe XMP Core 5.6-c138 79.159824, 2016/09/14-01:09:01        ">
   <rdf:RDF xmlns:rdf="http://www.w3.org/1999/02/22-rdf-syntax-ns#">
      <rdf:Description rdf:about=""/>
   </rdf:RDF>
</x:xmpmeta>
                                                                                                    
                                                                                                    
                                                                                                    
                                                                                                    
                                                                                                    
                                                                                                    
                                                                                                    
                                                                                                    
                                                                                                    
                                                                                                    
                                                                                                    
                                                                                                    
                                                                                                    
                                                                                                    
                                                                                                    
                                                                                                    
                                                                                                    
                                                                                                    
                                                                                                    
                                                                                                    
                           
<?xpacket end="w"?></metadata>
<defs>
    <style>
      .cls-1 {
        fill: #6d6e71;
        fill-rule: evenodd;
      }
    </style>
  </defs>
  <path id="icon" class="cls-1" d="M443.828,41.6H430.371a2.258,2.258,0,0,1-2.243-2.273V25.694a2.365,2.365,0,0,1,2.257-2.38h13.547a2.281,2.281,0,0,1,2.257,2.286V39.314A2.372,2.372,0,0,1,443.828,41.6Zm1.233-16a1.141,1.141,0,0,0-1.129-1.143H430.385a1.233,1.233,0,0,0-1.136,1.237V39.328a1.129,1.129,0,0,0,1.122,1.136h13.457a1.24,1.24,0,0,0,1.233-1.15V25.6Zm-3.387,10.286h-9.031a0.571,0.571,0,0,1,0-1.143h9.031A0.571,0.571,0,0,1,441.674,35.886Zm0-3.429h-9.031a0.571,0.571,0,0,1,0-1.143h9.031A0.571,0.571,0,0,1,441.674,32.457Zm0-3.428h-9.031a0.572,0.572,0,0,1,0-1.143h9.031A0.572,0.572,0,0,1,441.674,29.029Z" transform="translate(-428.125 -23.313)"/>
</svg>
