<svg xmlns="http://www.w3.org/2000/svg" width="20.82" height="21" viewBox="0 0 20.82 21">
  <metadata><?xpacket begin="﻿" id="W5M0MpCehiHzreSzNTczkc9d"?>
<x:xmpmeta xmlns:x="adobe:ns:meta/" x:xmptk="Adobe XMP Core 5.6-c138 79.159824, 2016/09/14-01:09:01        ">
   <rdf:RDF xmlns:rdf="http://www.w3.org/1999/02/22-rdf-syntax-ns#">
      <rdf:Description rdf:about=""/>
   </rdf:RDF>
</x:xmpmeta>
                                                                                                    
                                                                                                    
                                                                                                    
                                                                                                    
                                                                                                    
                                                                                                    
                                                                                                    
                                                                                                    
                                                                                                    
                                                                                                    
                                                                                                    
                                                                                                    
                                                                                                    
                                                                                                    
                                                                                                    
                                                                                                    
                                                                                                    
                                                                                                    
                                                                                                    
                                                                                                    
                           
<?xpacket end="w"?></metadata>
<defs>
    <style>
      .cls-1 {
        fill: #26658e;
        fill-rule: evenodd;
      }
    </style>
  </defs>
  <path id="instagram" class="cls-1" d="M1491.55,42h-15.6a2.61,2.61,0,0,1-2.6-2.625V23.625a2.61,2.61,0,0,1,2.6-2.625h15.6a2.61,2.61,0,0,1,2.6,2.625v15.75A2.61,2.61,0,0,1,1491.55,42Zm-7.8-14.569a4.01,4.01,0,0,0-3.65,2.362h-0.01c-0.01.015-.01,0.03-0.02,0.045-0.03.086-.07,0.175-0.1,0.264-0.02.043-.03,0.085-0.05,0.128a2.634,2.634,0,0,0-.07.278,0.656,0.656,0,0,0-.04.131c-0.02.1-.03,0.2-0.05,0.3a0.527,0.527,0,0,1-.02.123c-0.01.143-.02,0.288-0.02,0.435a4.03,4.03,0,1,0,8.06,0c0-.147-0.01-0.292-0.02-0.435a0.527,0.527,0,0,1-.02-0.123c-0.02-.1-0.03-0.2-0.05-0.3a0.656,0.656,0,0,0-.04-0.131,2.634,2.634,0,0,0-.07-0.278c-0.02-.043-0.03-0.085-0.05-0.128-0.03-.089-0.07-0.177-0.1-0.264-0.01-.015-0.01-0.03-0.02-0.045h-0.01A4.01,4.01,0,0,0,1483.75,27.432Zm8.06-3.019a1.047,1.047,0,0,0-1.04-1.05h-2.08a1.047,1.047,0,0,0-1.04,1.05v2.1a1.048,1.048,0,0,0,1.04,1.05h2.08a1.048,1.048,0,0,0,1.04-1.05v-2.1Zm0,5.381h-1.92a6.37,6.37,0,1,1-12.28,0h-1.92v8.794a1.048,1.048,0,0,0,1.04,1.05h14.04a1.048,1.048,0,0,0,1.04-1.05V29.794Z" transform="translate(-1473.34 -21)"/>
</svg>
