<svg xmlns="http://www.w3.org/2000/svg" width="20.812" height="21" viewBox="0 0 20.812 21">
  <metadata><?xpacket begin="﻿" id="W5M0MpCehiHzreSzNTczkc9d"?>
<x:xmpmeta xmlns:x="adobe:ns:meta/" x:xmptk="Adobe XMP Core 5.6-c138 79.159824, 2016/09/14-01:09:01        ">
   <rdf:RDF xmlns:rdf="http://www.w3.org/1999/02/22-rdf-syntax-ns#">
      <rdf:Description rdf:about=""/>
   </rdf:RDF>
</x:xmpmeta>
                                                                                                    
                                                                                                    
                                                                                                    
                                                                                                    
                                                                                                    
                                                                                                    
                                                                                                    
                                                                                                    
                                                                                                    
                                                                                                    
                                                                                                    
                                                                                                    
                                                                                                    
                                                                                                    
                                                                                                    
                                                                                                    
                                                                                                    
                                                                                                    
                                                                                                    
                                                                                                    
                           
<?xpacket end="w"?></metadata>
<defs>
    <style>
      .cls-1 {
        fill: #414344;
        fill-rule: evenodd;
      }
    </style>
  </defs>
  <path id="instagram" class="cls-1" d="M589.55,3796h-15.6a2.614,2.614,0,0,1-2.6-2.62v-15.75a2.617,2.617,0,0,1,2.6-2.63h15.6a2.617,2.617,0,0,1,2.6,2.63v15.75A2.614,2.614,0,0,1,589.55,3796Zm-7.8-14.57a4.03,4.03,0,0,0-3.655,2.36h0c-0.007.02-.012,0.03-0.018,0.05-0.038.08-.072,0.17-0.1,0.26-0.015.05-.032,0.09-0.046,0.13-0.03.09-.054,0.18-0.077,0.28-0.011.04-.024,0.09-0.034,0.13-0.021.1-.036,0.2-0.05,0.3,0,0.04-.014.08-0.018,0.12a4.324,4.324,0,0,0-.024.44,4.03,4.03,0,1,0,8.06,0,4.324,4.324,0,0,0-.024-0.44c0-.04-0.013-0.08-0.018-0.12-0.014-.1-0.029-0.2-0.05-0.3-0.01-.04-0.023-0.09-0.034-0.13-0.023-.1-0.047-0.19-0.077-0.28-0.014-.04-0.031-0.08-0.046-0.13-0.033-.09-0.066-0.18-0.1-0.26-0.006-.02-0.011-0.03-0.017-0.05h0A4.03,4.03,0,0,0,581.75,3781.43Zm8.06-3.02a1.045,1.045,0,0,0-1.04-1.05h-2.08a1.045,1.045,0,0,0-1.04,1.05v2.1a1.045,1.045,0,0,0,1.04,1.05h2.08a1.045,1.045,0,0,0,1.04-1.05v-2.1Zm0,5.38h-1.917a6.554,6.554,0,0,1,.227,1.71,6.37,6.37,0,1,1-12.74,0,6.555,6.555,0,0,1,.227-1.71H573.69v8.8a1.045,1.045,0,0,0,1.04,1.05h14.04a1.045,1.045,0,0,0,1.04-1.05v-8.8Z" transform="translate(-571.344 -3775)"/>
</svg>
