<svg 
 xmlns="http://www.w3.org/2000/svg"
 xmlns:xlink="http://www.w3.org/1999/xlink"
 width="25px" height="25px">
<path fill-rule="evenodd"  fill="rgb(109, 110, 113)"
 d="M25.000,23.334 C25.000,24.254 24.254,25.000 23.333,25.000 C22.851,25.000 22.425,24.789 22.121,24.462 L22.113,24.470 L18.733,21.090 C19.489,20.130 19.958,18.940 19.987,17.630 L24.470,22.113 L24.462,22.121 C24.789,22.426 25.000,22.851 25.000,23.334 ZM10.833,21.667 C4.850,21.667 0.000,16.816 0.000,10.833 C0.000,4.850 4.850,0.000 10.833,0.000 C16.816,0.000 21.667,4.850 21.667,10.833 C21.667,16.816 16.816,21.667 10.833,21.667 ZM10.833,3.333 C6.691,3.333 3.333,6.691 3.333,10.833 C3.333,14.975 6.691,18.333 10.833,18.333 C14.975,18.333 18.333,14.975 18.333,10.833 C18.333,6.691 14.975,3.333 10.833,3.333 Z"/>
</svg>