<svg xmlns="http://www.w3.org/2000/svg" xmlns:xlink="http://www.w3.org/1999/xlink" width="22.969" height="23" viewBox="0 0 22.969 23">
  <metadata><?xpacket begin="﻿" id="W5M0MpCehiHzreSzNTczkc9d"?>
<x:xmpmeta xmlns:x="adobe:ns:meta/" x:xmptk="Adobe XMP Core 5.6-c138 79.159824, 2016/09/14-01:09:01        ">
   <rdf:RDF xmlns:rdf="http://www.w3.org/1999/02/22-rdf-syntax-ns#">
      <rdf:Description rdf:about=""/>
   </rdf:RDF>
</x:xmpmeta>
                                                                                                    
                                                                                                    
                                                                                                    
                                                                                                    
                                                                                                    
                                                                                                    
                                                                                                    
                                                                                                    
                                                                                                    
                                                                                                    
                                                                                                    
                                                                                                    
                                                                                                    
                                                                                                    
                                                                                                    
                                                                                                    
                                                                                                    
                                                                                                    
                                                                                                    
                                                                                                    
                           
<?xpacket end="w"?></metadata>
<defs>
    <style>
      .cls-1 {
        fill: #c7c9ce;
        fill-rule: evenodd;
        filter: url(#filter);
      }
    </style>
    <filter id="filter" x="776.031" y="3246" width="22.969" height="23" filterUnits="userSpaceOnUse">
      <feFlood result="flood" flood-color="#737477"/>
      <feComposite result="composite" operator="in" in2="SourceGraphic"/>
      <feBlend result="blend" in2="SourceGraphic"/>
    </filter>
  </defs>
  <path id="link" class="cls-1" d="M797.674,3253.74l-3.2,3.21a4.5,4.5,0,0,1-4.394,1.16l2.673-2.67a0.909,0.909,0,0,0,.12-0.1l3.2-3.2a2.267,2.267,0,0,0-3.2-3.21l-3.2,3.21h0l-2.769,2.76a4.541,4.541,0,0,1,1.171-4.37l3.2-3.2A4.53,4.53,0,1,1,797.674,3253.74Zm-13.169,8.42h0a1.15,1.15,0,1,1-1.6-1.65l7.611-7.6a1.128,1.128,0,0,1,.84-0.37,1.147,1.147,0,0,1,1.151,1.15,1.123,1.123,0,0,1-.332.8l0,0.01Zm-2.373-2.5-3.2,3.2a2.267,2.267,0,0,0,3.2,3.21l3.2-3.21a0.39,0.39,0,0,0,.06-0.07l2.709-2.7a4.531,4.531,0,0,1-1.168,4.38l-3.2,3.21a4.534,4.534,0,1,1-6.4-6.42l3.2-3.21a4.528,4.528,0,0,1,4.381-1.16l-2.757,2.75C782.148,3259.65,782.139,3259.65,782.132,3259.66Z" transform="translate(-776.031 -3246)"/>
</svg>
