<svg xmlns="http://www.w3.org/2000/svg" xmlns:xlink="http://www.w3.org/1999/xlink" width="18.063" height="154" viewBox="0 0 18.063 154"><svg width="18.063" height="18.281" viewBox="0 0 18.063 18.281" id="blog" y="0"><defs><style>.cls-1{fill:#6d6e71;fill-rule:evenodd}</style></defs><path id="icon" class="cls-1" d="M443.828 41.6h-13.457a2.258 2.258 0 0 1-2.243-2.273V25.694a2.365 2.365 0 0 1 2.257-2.38h13.547a2.281 2.281 0 0 1 2.257 2.286v13.714a2.372 2.372 0 0 1-2.361 2.286zm1.233-16a1.141 1.141 0 0 0-1.129-1.143h-13.547a1.233 1.233 0 0 0-1.136 1.237v13.634a1.129 1.129 0 0 0 1.122 1.136h13.457a1.24 1.24 0 0 0 1.233-1.15V25.6zm-3.387 10.286h-9.031a.571.571 0 0 1 0-1.143h9.031a.571.571 0 0 1 0 1.143zm0-3.429h-9.031a.571.571 0 0 1 0-1.143h9.031a.571.571 0 0 1 0 1.143zm0-3.428h-9.031a.572.572 0 0 1 0-1.143h9.031a.572.572 0 0 1 0 1.143z" transform="translate(-428.125 -23.313)"></path></svg><svg width="18.063" height="18.281" viewBox="0 0 18.063 18.281" id="blog-white" y="19"><defs><style>.cls-1{fill:#6d6e71;fill-rule:evenodd;filter:url(#filter)}</style><filter id="filter" x="428.125" y="23.313" width="18.063" height="18.281" filterUnits="userSpaceOnUse"><feFlood result="flood" flood-color="#fff"></feFlood><feComposite result="composite" operator="in" in2="SourceGraphic"></feComposite><feBlend result="blend" in2="SourceGraphic"></feBlend></filter></defs><path id="icon" class="cls-1" d="M443.828 41.6h-13.457a2.258 2.258 0 0 1-2.243-2.273V25.694a2.365 2.365 0 0 1 2.257-2.38h13.547a2.281 2.281 0 0 1 2.257 2.286v13.714a2.372 2.372 0 0 1-2.361 2.286zm1.233-16a1.141 1.141 0 0 0-1.129-1.143h-13.547a1.233 1.233 0 0 0-1.136 1.237v13.634a1.129 1.129 0 0 0 1.122 1.136h13.457a1.24 1.24 0 0 0 1.233-1.15V25.6zm-3.387 10.286h-9.031a.571.571 0 0 1 0-1.143h9.031a.571.571 0 0 1 0 1.143zm0-3.429h-9.031a.571.571 0 0 1 0-1.143h9.031a.571.571 0 0 1 0 1.143zm0-3.428h-9.031a.572.572 0 0 1 0-1.143h9.031a.572.572 0 0 1 0 1.143z" transform="translate(-428.125 -23.313)"></path></svg><svg width="18.062" height="21.031" viewBox="0 0 18.062 21.031" id="jobs" y="38"><defs><style>.cls-1{fill:#6d6e71;fill-rule:evenodd}</style></defs><path id="icon" class="cls-1" d="M547.464 41.6h-12.9a2.605 2.605 0 0 1-2.581-2.629V25.828a2.606 2.606 0 0 1 2.581-2.629h1.936v-1.313h1.737a3.593 3.593 0 0 1 5.556 0h1.738V23.2h1.935a2.6 2.6 0 0 1 2.58 2.629v13.143a2.6 2.6 0 0 1-2.582 2.628zm-3.225-18.4H542.8a1.879 1.879 0 0 0-3.584 0h-1.433v2.629h6.451V23.2zm4.515 2.629a1.3 1.3 0 0 0-1.29-1.314h-1.935v2.628H536.5v-2.628h-1.935a1.3 1.3 0 0 0-1.29 1.314v13.143a1.3 1.3 0 0 0 1.29 1.314h12.9a1.3 1.3 0 0 0 1.29-1.314V25.828zm-3.225 11.829H536.5a.657.657 0 0 1 0-1.314h9.031a.657.657 0 0 1-.002 1.313zm0-3.286H536.5a.657.657 0 0 1 0-1.314h9.031a.657.657 0 0 1-.002 1.314zm0-3.285H536.5a.657.657 0 0 1 0-1.315h9.031a.657.657 0 0 1-.002 1.314z" transform="translate(-531.969 -20.563)"></path></svg><svg width="18.062" height="21.031" viewBox="0 0 18.062 21.031" id="jobs-white" y="60"><defs><style>.cls-1{fill:#6d6e71;fill-rule:evenodd;filter:url(#filter)}</style><filter id="filter" x="531.969" y="20.563" width="18.062" height="21.031" filterUnits="userSpaceOnUse"><feFlood result="flood" flood-color="#fff"></feFlood><feComposite result="composite" operator="in" in2="SourceGraphic"></feComposite><feBlend result="blend" in2="SourceGraphic"></feBlend></filter></defs><path id="icon" class="cls-1" d="M547.464 41.6h-12.9a2.605 2.605 0 0 1-2.581-2.629V25.828a2.606 2.606 0 0 1 2.581-2.629h1.936v-1.313h1.737a3.593 3.593 0 0 1 5.556 0h1.738V23.2h1.935a2.6 2.6 0 0 1 2.58 2.629v13.143a2.6 2.6 0 0 1-2.582 2.628zm-3.225-18.4H542.8a1.879 1.879 0 0 0-3.584 0h-1.433v2.629h6.451V23.2zm4.515 2.629a1.3 1.3 0 0 0-1.29-1.314h-1.935v2.628H536.5v-2.628h-1.935a1.3 1.3 0 0 0-1.29 1.314v13.143a1.3 1.3 0 0 0 1.29 1.314h12.9a1.3 1.3 0 0 0 1.29-1.314V25.828zm-3.225 11.829H536.5a.657.657 0 0 1 0-1.314h9.031a.657.657 0 0 1-.002 1.313zm0-3.286H536.5a.657.657 0 0 1 0-1.314h9.031a.657.657 0 0 1-.002 1.314zm0-3.285H536.5a.657.657 0 0 1 0-1.315h9.031a.657.657 0 0 1-.002 1.314z" transform="translate(-531.969 -20.563)"></path></svg><svg width="18.062" height="18.281" viewBox="0 0 18.062 18.281" id="language" y="82"><defs><style>.cls-1{fill:#6d6e71;fill-rule:evenodd}</style></defs><path id="icon" class="cls-1" d="M748.723 41.6a9.144 9.144 0 1 1 9.03-9.143 9.088 9.088 0 0 1-9.03 9.143zm6.545-4.669a8 8 0 0 0 1.335-3.9h-4.518a22.475 22.475 0 0 1-.283 3.09 19.635 19.635 0 0 1 3.466.81zm-8.777-3.9a20.074 20.074 0 0 0 .291 2.947c.635-.056 1.281-.089 1.941-.089s1.305.033 1.94.089a20.074 20.074 0 0 0 .291-2.947h-4.463zm4.463-1.143a20.067 20.067 0 0 0-.291-2.947c-.635.056-1.281.089-1.94.089s-1.306-.033-1.941-.089a20.067 20.067 0 0 0-.291 2.947h4.463zm3.536 6.03a18.532 18.532 0 0 0-2.909-.671 18.758 18.758 0 0 1-.92 2.959 7.893 7.893 0 0 0 3.829-2.29zm-6.315 2.513c.181.013.363.028.548.028s.366-.015.547-.028a17.173 17.173 0 0 0 1.158-3.335c-.561-.049-1.13-.079-1.705-.079s-1.145.03-1.706.079a17.173 17.173 0 0 0 1.158 3.333zm-1.391-.224a18.758 18.758 0 0 1-.92-2.959 18.532 18.532 0 0 0-2.909.671 7.893 7.893 0 0 0 3.829 2.281zm-1.141-4.086a22.475 22.475 0 0 1-.283-3.09h-4.518a7.993 7.993 0 0 0 1.336 3.9 19.6 19.6 0 0 1 3.465-.812zm-3.465-8.135a7.992 7.992 0 0 0-1.336 3.9h4.518a22.474 22.474 0 0 1 .283-3.09 19.576 19.576 0 0 1-3.465-.813zm.777-.986a18.6 18.6 0 0 0 2.909.671 18.781 18.781 0 0 1 .92-2.96A7.894 7.894 0 0 0 742.955 27zm6.315-2.513c-.181-.013-.362-.028-.547-.028s-.367.015-.548.028a17.19 17.19 0 0 0-1.158 3.335c.561.05 1.13.079 1.706.079s1.144-.03 1.705-.079a17.19 17.19 0 0 0-1.158-3.337zm1.391.224a18.781 18.781 0 0 1 .92 2.96A18.573 18.573 0 0 0 754.49 27a7.894 7.894 0 0 0-3.829-2.29zM751.8 28.8a22.474 22.474 0 0 1 .283 3.09h4.517a8 8 0 0 0-1.335-3.9 19.608 19.608 0 0 1-3.465.81z" transform="translate(-739.688 -23.313)"></path></svg><svg width="18.062" height="18.281" viewBox="0 0 18.062 18.281" id="language-white" y="101"><defs><style>.cls-1{fill:#6d6e71;fill-rule:evenodd;filter:url(#filter)}</style><filter id="filter" x="739.688" y="23.313" width="18.062" height="18.281" filterUnits="userSpaceOnUse"><feFlood result="flood" flood-color="#fff"></feFlood><feComposite result="composite" operator="in" in2="SourceGraphic"></feComposite><feBlend result="blend" in2="SourceGraphic"></feBlend></filter></defs><path id="icon" class="cls-1" d="M748.723 41.6a9.144 9.144 0 1 1 9.03-9.143 9.088 9.088 0 0 1-9.03 9.143zm6.545-4.669a8 8 0 0 0 1.335-3.9h-4.518a22.475 22.475 0 0 1-.283 3.09 19.635 19.635 0 0 1 3.466.81zm-8.777-3.9a20.074 20.074 0 0 0 .291 2.947c.635-.056 1.281-.089 1.941-.089s1.305.033 1.94.089a20.074 20.074 0 0 0 .291-2.947h-4.463zm4.463-1.143a20.067 20.067 0 0 0-.291-2.947c-.635.056-1.281.089-1.94.089s-1.306-.033-1.941-.089a20.067 20.067 0 0 0-.291 2.947h4.463zm3.536 6.03a18.532 18.532 0 0 0-2.909-.671 18.758 18.758 0 0 1-.92 2.959 7.893 7.893 0 0 0 3.829-2.29zm-6.315 2.513c.181.013.363.028.548.028s.366-.015.547-.028a17.173 17.173 0 0 0 1.158-3.335c-.561-.049-1.13-.079-1.705-.079s-1.145.03-1.706.079a17.173 17.173 0 0 0 1.158 3.333zm-1.391-.224a18.758 18.758 0 0 1-.92-2.959 18.532 18.532 0 0 0-2.909.671 7.893 7.893 0 0 0 3.829 2.281zm-1.141-4.086a22.475 22.475 0 0 1-.283-3.09h-4.518a7.993 7.993 0 0 0 1.336 3.9 19.6 19.6 0 0 1 3.465-.812zm-3.465-8.135a7.992 7.992 0 0 0-1.336 3.9h4.518a22.474 22.474 0 0 1 .283-3.09 19.576 19.576 0 0 1-3.465-.813zm.777-.986a18.6 18.6 0 0 0 2.909.671 18.781 18.781 0 0 1 .92-2.96A7.894 7.894 0 0 0 742.955 27zm6.315-2.513c-.181-.013-.362-.028-.547-.028s-.367.015-.548.028a17.19 17.19 0 0 0-1.158 3.335c.561.05 1.13.079 1.706.079s1.144-.03 1.705-.079a17.19 17.19 0 0 0-1.158-3.337zm1.391.224a18.781 18.781 0 0 1 .92 2.96A18.573 18.573 0 0 0 754.49 27a7.894 7.894 0 0 0-3.829-2.29zM751.8 28.8a22.474 22.474 0 0 1 .283 3.09h4.517a8 8 0 0 0-1.335-3.9 19.608 19.608 0 0 1-3.465.81z" transform="translate(-739.688 -23.313)"></path></svg><svg width="17.156" height="16.469" viewBox="0 0 17.156 16.469" id="support" y="120"><defs><style>.cls-1{fill:#6d6e71;fill-rule:evenodd}</style></defs><path id="icon" class="cls-1" d="M651.923 38.491L647.1 35.2h-4.289v4.389a1.085 1.085 0 0 1-1.073 1.1h-1.608a1.085 1.085 0 0 1-1.073-1.1V35.2a.914.914 0 0 1 .011-.1 3.712 3.712 0 0 1-3.228-3.735c0-2.424 1.921-3.84 4.29-3.84h6.97l4.826-3.291a1.085 1.085 0 0 1 1.073 1.1v12.06a1.085 1.085 0 0 1-1.076 1.097zm-11.8.549a.543.543 0 0 0 .536.549h.541a.543.543 0 0 0 .536-.549V35.2h-1.608v3.84zm0-10.423c-1.1-.036-3.218.319-3.218 2.742s2.152 2.743 3.218 2.743h4.289v-5.485h-4.289zm6.97 4.345v-4.345h-1.608V34.1h1.615v-1.14zm4.826 3.06v-10.7l-3.753 2.743v6.583l3.753 2.743v-1.368z" transform="translate(-635.844 -24.219)"></path></svg><svg width="17.156" height="16.469" viewBox="0 0 17.156 16.469" id="support-white" y="137"><defs><style>.cls-1{fill:#6d6e71;fill-rule:evenodd;filter:url(#filter)}</style><filter id="filter" x="635.844" y="24.219" width="17.156" height="16.469" filterUnits="userSpaceOnUse"><feFlood result="flood" flood-color="#fff"></feFlood><feComposite result="composite" operator="in" in2="SourceGraphic"></feComposite><feBlend result="blend" in2="SourceGraphic"></feBlend></filter></defs><path id="icon" class="cls-1" d="M651.923 38.491L647.1 35.2h-4.289v4.389a1.085 1.085 0 0 1-1.073 1.1h-1.608a1.085 1.085 0 0 1-1.073-1.1V35.2a.914.914 0 0 1 .011-.1 3.712 3.712 0 0 1-3.228-3.735c0-2.424 1.921-3.84 4.29-3.84h6.97l4.826-3.291a1.085 1.085 0 0 1 1.073 1.1v12.06a1.085 1.085 0 0 1-1.076 1.097zm-11.8.549a.543.543 0 0 0 .536.549h.541a.543.543 0 0 0 .536-.549V35.2h-1.608v3.84zm0-10.423c-1.1-.036-3.218.319-3.218 2.742s2.152 2.743 3.218 2.743h4.289v-5.485h-4.289zm6.97 4.345v-4.345h-1.608V34.1h1.615v-1.14zm4.826 3.06v-10.7l-3.753 2.743v6.583l3.753 2.743v-1.368z" transform="translate(-635.844 -24.219)"></path></svg></svg>