<svg xmlns="http://www.w3.org/2000/svg" xmlns:xlink="http://www.w3.org/1999/xlink" width="18.063" height="18.281" viewBox="0 0 18.063 18.281">
  <metadata><?xpacket begin="﻿" id="W5M0MpCehiHzreSzNTczkc9d"?>
<x:xmpmeta xmlns:x="adobe:ns:meta/" x:xmptk="Adobe XMP Core 5.6-c138 79.159824, 2016/09/14-01:09:01        ">
   <rdf:RDF xmlns:rdf="http://www.w3.org/1999/02/22-rdf-syntax-ns#">
      <rdf:Description rdf:about=""/>
   </rdf:RDF>
</x:xmpmeta>
                                                                                                    
                                                                                                    
                                                                                                    
                                                                                                    
                                                                                                    
                                                                                                    
                                                                                                    
                                                                                                    
                                                                                                    
                                                                                                    
                                                                                                    
                                                                                                    
                                                                                                    
                                                                                                    
                                                                                                    
                                                                                                    
                                                                                                    
                                                                                                    
                                                                                                    
                                                                                                    
                           
<?xpacket end="w"?></metadata>
<defs>
    <style>
      .cls-1 {
        fill: #6d6e71;
        fill-rule: evenodd;
        filter: url(#filter);
      }
    </style>
    <filter id="filter" x="443.125" y="32.313" width="18.063" height="18.281" filterUnits="userSpaceOnUse">
      <feFlood result="flood" flood-color="#fff"/>
      <feComposite result="composite" operator="in" in2="SourceGraphic"/>
      <feBlend result="blend" in2="SourceGraphic"/>
    </filter>
  </defs>
  <path id="icon" class="cls-1" d="M458.828,50.6H445.371a2.258,2.258,0,0,1-2.243-2.273V34.694a2.365,2.365,0,0,1,2.257-2.38h13.547a2.281,2.281,0,0,1,2.257,2.285V48.314A2.372,2.372,0,0,1,458.828,50.6Zm1.233-16a1.141,1.141,0,0,0-1.129-1.143H445.385a1.233,1.233,0,0,0-1.136,1.237V48.328a1.129,1.129,0,0,0,1.122,1.136h13.457a1.24,1.24,0,0,0,1.233-1.15V34.6Zm-3.387,10.286h-9.031a0.571,0.571,0,0,1,0-1.143h9.031A0.571,0.571,0,0,1,456.674,44.886Zm0-3.429h-9.031a0.571,0.571,0,0,1,0-1.143h9.031A0.571,0.571,0,0,1,456.674,41.457Zm0-3.428h-9.031a0.572,0.572,0,0,1,0-1.143h9.031A0.572,0.572,0,0,1,456.674,38.029Z" transform="translate(-443.125 -32.313)"/>
</svg>
