<svg xmlns="http://www.w3.org/2000/svg" width="20.78" height="21" viewBox="0 0 20.78 21">
  <metadata><?xpacket begin="﻿" id="W5M0MpCehiHzreSzNTczkc9d"?>
<x:xmpmeta xmlns:x="adobe:ns:meta/" x:xmptk="Adobe XMP Core 5.6-c138 79.159824, 2016/09/14-01:09:01        ">
   <rdf:RDF xmlns:rdf="http://www.w3.org/1999/02/22-rdf-syntax-ns#">
      <rdf:Description rdf:about=""/>
   </rdf:RDF>
</x:xmpmeta>
                                                                                                    
                                                                                                    
                                                                                                    
                                                                                                    
                                                                                                    
                                                                                                    
                                                                                                    
                                                                                                    
                                                                                                    
                                                                                                    
                                                                                                    
                                                                                                    
                                                                                                    
                                                                                                    
                                                                                                    
                                                                                                    
                                                                                                    
                                                                                                    
                                                                                                    
                                                                                                    
                           
<?xpacket end="w"?></metadata>
<defs>
    <style>
      .cls-1 {
        fill: #2b75b2;
        fill-rule: evenodd;
      }
    </style>
  </defs>
  <path id="facebook" class="cls-1" d="M1362.19,42h-17.58a1.557,1.557,0,0,1-1.61-1.551V22.616A1.614,1.614,0,0,1,1344.61,21h17.58a1.614,1.614,0,0,1,1.61,1.618V40.452A1.557,1.557,0,0,1,1362.19,42Zm-10.33-16.952a5.957,5.957,0,0,0-2.49.459,2.971,2.971,0,0,0-1.3,1.334,4.681,4.681,0,0,0-.34,2.067V29.85h-1.56v2.459h1.56v8.168h3.32V32.309h2.08l0.57-2.459h-2.65V28.967a1.73,1.73,0,0,1,.32-1.211,1.721,1.721,0,0,1,1.14-.336,2.757,2.757,0,0,1,1.41.536l0.61-2.314A9.3,9.3,0,0,0,1351.86,25.051Z" transform="translate(-1343 -21)"/>
</svg>
