<svg xmlns="http://www.w3.org/2000/svg" width="23.41" height="20.344" viewBox="0 0 23.41 20.344">
  <metadata><?xpacket begin="﻿" id="W5M0MpCehiHzreSzNTczkc9d"?>
<x:xmpmeta xmlns:x="adobe:ns:meta/" x:xmptk="Adobe XMP Core 5.6-c138 79.159824, 2016/09/14-01:09:01        ">
   <rdf:RDF xmlns:rdf="http://www.w3.org/1999/02/22-rdf-syntax-ns#">
      <rdf:Description rdf:about=""/>
   </rdf:RDF>
</x:xmpmeta>
                                                                                                    
                                                                                                    
                                                                                                    
                                                                                                    
                                                                                                    
                                                                                                    
                                                                                                    
                                                                                                    
                                                                                                    
                                                                                                    
                                                                                                    
                                                                                                    
                                                                                                    
                                                                                                    
                                                                                                    
                                                                                                    
                                                                                                    
                                                                                                    
                                                                                                    
                                                                                                    
                           
<?xpacket end="w"?></metadata>
<defs>
    <style>
      .cls-1 {
        fill: #dd4070;
        fill-rule: evenodd;
      }
    </style>
  </defs>
  <path id="g_" data-name="g+" class="cls-1" d="M1556.34,26.107v3.61h-1.46v-3.61h-3.65V24.631h3.65v-3.61h1.46v3.61H1560v1.476h-3.66Zm-10.11-3.656a3.794,3.794,0,0,1,2.06,3.449,4.014,4.014,0,0,1-1.81,3.11c-1,.773-1.19,1.1-1.19,1.754,0,0.56,1.07,1.515,1.63,1.907a4.227,4.227,0,0,1,2.11,3.985c0,2.215-2.11,4.689-6.02,4.689-3.43,0-6.41-1.659-6.41-3.873,0-2.25,2.73-4.419,6.16-4.419,0.37,0,.71-0.015,1.07-0.015a2.393,2.393,0,0,1-.84-1.7,2.588,2.588,0,0,1,.31-1.162c-0.19.013-.38-0.017-0.57-0.017a4.5,4.5,0,0,1-4.7-4.524c0-2.413,2.6-4.633,5.37-4.633h6.17l-1.38,1.453h-1.96Zm-2.82,11.175c-2.37-.025-4.49,1.435-4.49,3.189,0,1.789,1.71,3.1,4.08,3.1,3.33,0,4.49-1.217,4.49-3.006a2.679,2.679,0,0,0-.08-0.633c-0.26-1.013-1.18-1.514-2.47-2.4A5.112,5.112,0,0,0,1543.41,33.627Zm2.66-7.7c-0.27-2.073-1.85-3.739-3.44-3.786s-2.66,1.54-2.39,3.615,1.79,3.8,3.38,3.842S1546.34,28,1546.07,25.928Z" transform="translate(-1536.59 -21)"/>
</svg>
