<svg xmlns="http://www.w3.org/2000/svg" xmlns:xlink="http://www.w3.org/1999/xlink" width="18.062" height="21.031" viewBox="0 0 18.062 21.031">
  <metadata><?xpacket begin="﻿" id="W5M0MpCehiHzreSzNTczkc9d"?>
<x:xmpmeta xmlns:x="adobe:ns:meta/" x:xmptk="Adobe XMP Core 5.6-c138 79.159824, 2016/09/14-01:09:01        ">
   <rdf:RDF xmlns:rdf="http://www.w3.org/1999/02/22-rdf-syntax-ns#">
      <rdf:Description rdf:about=""/>
   </rdf:RDF>
</x:xmpmeta>
                                                                                                    
                                                                                                    
                                                                                                    
                                                                                                    
                                                                                                    
                                                                                                    
                                                                                                    
                                                                                                    
                                                                                                    
                                                                                                    
                                                                                                    
                                                                                                    
                                                                                                    
                                                                                                    
                                                                                                    
                                                                                                    
                                                                                                    
                                                                                                    
                                                                                                    
                                                                                                    
                           
<?xpacket end="w"?></metadata>
<defs>
    <style>
      .cls-1 {
        fill: #6d6e71;
        fill-rule: evenodd;
        filter: url(#filter);
      }
    </style>
    <filter id="filter" x="542.969" y="27.563" width="18.062" height="21.031" filterUnits="userSpaceOnUse">
      <feFlood result="flood" flood-color="#fff"/>
      <feComposite result="composite" operator="in" in2="SourceGraphic"/>
      <feBlend result="blend" in2="SourceGraphic"/>
    </filter>
  </defs>
  <path id="icon" class="cls-1" d="M558.464,48.6h-12.9a2.605,2.605,0,0,1-2.581-2.629V32.828a2.606,2.606,0,0,1,2.581-2.629H547.5V28.886h1.737a3.593,3.593,0,0,1,5.556,0h1.738V30.2h1.935a2.6,2.6,0,0,1,2.58,2.629V45.972A2.6,2.6,0,0,1,558.464,48.6Zm-3.225-18.4H553.8a1.879,1.879,0,0,0-3.584,0h-1.433v2.629h6.451V30.2Zm4.515,2.629a1.3,1.3,0,0,0-1.29-1.314h-1.935v2.628H547.5V31.515h-1.935a1.3,1.3,0,0,0-1.29,1.314V45.972a1.3,1.3,0,0,0,1.29,1.314h12.9a1.3,1.3,0,0,0,1.29-1.314V32.828Zm-3.225,11.829H547.5a0.657,0.657,0,0,1,0-1.314h9.031A0.657,0.657,0,0,1,556.529,44.657Zm0-3.286H547.5a0.657,0.657,0,0,1,0-1.314h9.031A0.657,0.657,0,0,1,556.529,41.372Zm0-3.285H547.5a0.657,0.657,0,0,1,0-1.315h9.031A0.657,0.657,0,0,1,556.529,38.086Z" transform="translate(-542.969 -27.563)"/>
</svg>
