<svg xmlns="http://www.w3.org/2000/svg" width="18.062" height="21.031" viewBox="0 0 18.062 21.031">
  <metadata><?xpacket begin="﻿" id="W5M0MpCehiHzreSzNTczkc9d"?>
<x:xmpmeta xmlns:x="adobe:ns:meta/" x:xmptk="Adobe XMP Core 5.6-c138 79.159824, 2016/09/14-01:09:01        ">
   <rdf:RDF xmlns:rdf="http://www.w3.org/1999/02/22-rdf-syntax-ns#">
      <rdf:Description rdf:about=""/>
   </rdf:RDF>
</x:xmpmeta>
                                                                                                    
                                                                                                    
                                                                                                    
                                                                                                    
                                                                                                    
                                                                                                    
                                                                                                    
                                                                                                    
                                                                                                    
                                                                                                    
                                                                                                    
                                                                                                    
                                                                                                    
                                                                                                    
                                                                                                    
                                                                                                    
                                                                                                    
                                                                                                    
                                                                                                    
                                                                                                    
                           
<?xpacket end="w"?></metadata>
<defs>
    <style>
      .cls-1 {
        fill: #6d6e71;
        fill-rule: evenodd;
      }
    </style>
  </defs>
  <path id="icon" class="cls-1" d="M547.464,41.6h-12.9a2.605,2.605,0,0,1-2.581-2.629V25.828a2.606,2.606,0,0,1,2.581-2.629H536.5V21.886h1.737a3.593,3.593,0,0,1,5.556,0h1.738V23.2h1.935a2.6,2.6,0,0,1,2.58,2.629V38.972A2.6,2.6,0,0,1,547.464,41.6Zm-3.225-18.4H542.8a1.879,1.879,0,0,0-3.584,0h-1.433v2.629h6.451V23.2Zm4.515,2.629a1.3,1.3,0,0,0-1.29-1.314h-1.935v2.628H536.5V24.515h-1.935a1.3,1.3,0,0,0-1.29,1.314V38.972a1.3,1.3,0,0,0,1.29,1.314h12.9a1.3,1.3,0,0,0,1.29-1.314V25.828Zm-3.225,11.829H536.5a0.657,0.657,0,0,1,0-1.314h9.031A0.657,0.657,0,0,1,545.529,37.657Zm0-3.286H536.5a0.657,0.657,0,0,1,0-1.314h9.031A0.657,0.657,0,0,1,545.529,34.372Zm0-3.285H536.5a0.657,0.657,0,0,1,0-1.315h9.031A0.657,0.657,0,0,1,545.529,31.086Z" transform="translate(-531.969 -20.563)"/>
</svg>
