<svg xmlns="http://www.w3.org/2000/svg" xmlns:xlink="http://www.w3.org/1999/xlink" width="18.062" height="18.281" viewBox="0 0 18.062 18.281">
  <metadata><?xpacket begin="﻿" id="W5M0MpCehiHzreSzNTczkc9d"?>
<x:xmpmeta xmlns:x="adobe:ns:meta/" x:xmptk="Adobe XMP Core 5.6-c138 79.159824, 2016/09/14-01:09:01        ">
   <rdf:RDF xmlns:rdf="http://www.w3.org/1999/02/22-rdf-syntax-ns#">
      <rdf:Description rdf:about=""/>
   </rdf:RDF>
</x:xmpmeta>
                                                                                                    
                                                                                                    
                                                                                                    
                                                                                                    
                                                                                                    
                                                                                                    
                                                                                                    
                                                                                                    
                                                                                                    
                                                                                                    
                                                                                                    
                                                                                                    
                                                                                                    
                                                                                                    
                                                                                                    
                                                                                                    
                                                                                                    
                                                                                                    
                                                                                                    
                                                                                                    
                           
<?xpacket end="w"?></metadata>
<defs>
    <style>
      .cls-1 {
        fill: #6d6e71;
        fill-rule: evenodd;
        filter: url(#filter);
      }
    </style>
    <filter id="filter" x="750.688" y="30.313" width="18.062" height="18.281" filterUnits="userSpaceOnUse">
      <feFlood result="flood" flood-color="#fff"/>
      <feComposite result="composite" operator="in" in2="SourceGraphic"/>
      <feBlend result="blend" in2="SourceGraphic"/>
    </filter>
  </defs>
  <path id="icon" class="cls-1" d="M759.723,48.6a9.144,9.144,0,1,1,9.03-9.143A9.088,9.088,0,0,1,759.723,48.6Zm6.545-4.669a8,8,0,0,0,1.335-3.9h-4.518a22.475,22.475,0,0,1-.283,3.09A19.635,19.635,0,0,1,766.268,43.931Zm-8.777-3.9a20.074,20.074,0,0,0,.291,2.947c0.635-.056,1.281-0.089,1.941-0.089s1.305,0.033,1.94.089a20.074,20.074,0,0,0,.291-2.947h-4.463Zm4.463-1.143a20.067,20.067,0,0,0-.291-2.947c-0.635.056-1.281,0.089-1.94,0.089s-1.306-.033-1.941-0.089a20.067,20.067,0,0,0-.291,2.947h4.463Zm3.536,6.03a18.532,18.532,0,0,0-2.909-.671,18.758,18.758,0,0,1-.92,2.959A7.893,7.893,0,0,0,765.49,44.916Zm-6.315,2.513c0.181,0.013.363,0.028,0.548,0.028s0.366-.015.547-0.028a17.173,17.173,0,0,0,1.158-3.335c-0.561-.049-1.13-0.079-1.705-0.079s-1.145.03-1.706,0.079A17.173,17.173,0,0,0,759.175,47.429Zm-1.391-.224a18.758,18.758,0,0,1-.92-2.959,18.532,18.532,0,0,0-2.909.671A7.893,7.893,0,0,0,757.784,47.2Zm-1.141-4.086a22.475,22.475,0,0,1-.283-3.09h-4.518a7.993,7.993,0,0,0,1.336,3.9A19.6,19.6,0,0,1,756.643,43.119Zm-3.465-8.135a7.992,7.992,0,0,0-1.336,3.9h4.518a22.474,22.474,0,0,1,.283-3.09A19.576,19.576,0,0,1,753.178,34.983ZM753.955,34a18.6,18.6,0,0,0,2.909.671,18.781,18.781,0,0,1,.92-2.96A7.894,7.894,0,0,0,753.955,34Zm6.315-2.513c-0.181-.013-0.362-0.028-0.547-0.028s-0.367.015-.548,0.028a17.19,17.19,0,0,0-1.158,3.335c0.561,0.05,1.13.079,1.706,0.079s1.144-.03,1.705-0.079A17.19,17.19,0,0,0,760.27,31.485Zm1.391,0.224a18.781,18.781,0,0,1,.92,2.96A18.573,18.573,0,0,0,765.49,34,7.894,7.894,0,0,0,761.661,31.71ZM762.8,35.8a22.474,22.474,0,0,1,.283,3.09H767.6a8,8,0,0,0-1.335-3.9A19.608,19.608,0,0,1,762.8,35.8Z" transform="translate(-750.688 -30.313)"/>
</svg>
