<svg xmlns="http://www.w3.org/2000/svg" width="32" height="27.97" viewBox="0 0 32 27.97">
  <metadata><?xpacket begin="﻿" id="W5M0MpCehiHzreSzNTczkc9d"?>
<x:xmpmeta xmlns:x="adobe:ns:meta/" x:xmptk="Adobe XMP Core 5.6-c138 79.159824, 2016/09/14-01:09:01        ">
   <rdf:RDF xmlns:rdf="http://www.w3.org/1999/02/22-rdf-syntax-ns#">
      <rdf:Description rdf:about=""/>
   </rdf:RDF>
</x:xmpmeta>
                                                                                                    
                                                                                                    
                                                                                                    
                                                                                                    
                                                                                                    
                                                                                                    
                                                                                                    
                                                                                                    
                                                                                                    
                                                                                                    
                                                                                                    
                                                                                                    
                                                                                                    
                                                                                                    
                                                                                                    
                                                                                                    
                                                                                                    
                                                                                                    
                                                                                                    
                                                                                                    
                           
<?xpacket end="w"?></metadata>
<defs>
    <style>
      .cls-1 {
        fill: #cc9800;
        fill-rule: evenodd;
      }
    </style>
  </defs>
  <path id="icon" class="cls-1" d="M1282.2,1116.11a9.653,9.653,0,0,0-13.2-.29,9.64,9.64,0,0,0-13.19.29,9.392,9.392,0,0,0,0,13.39c1.07,1.06,11.05,10.93,11.05,10.93a3.048,3.048,0,0,0,4.28,0s10.93-10.81,11.06-10.93A9.392,9.392,0,0,0,1282.2,1116.11Zm-1.43,11.98-11.05,10.93a1.02,1.02,0,0,1-1.43,0l-11.05-10.93a7.418,7.418,0,0,1,0-10.57,7.6,7.6,0,0,1,10.41-.22l1.35,1.22,1.36-1.22a7.6,7.6,0,0,1,10.41.22A7.418,7.418,0,0,1,1280.77,1128.09Zm-18.51-9.75a0.01,0.01,0,0,0-.01.01,4.242,4.242,0,0,0-4.24,4.24h0a0.5,0.5,0,0,0,.5.5,0.508,0.508,0,0,0,.5-0.5h0a3.248,3.248,0,0,1,3.24-3.25h0.01a0.5,0.5,0,0,0,.5-0.5A0.508,0.508,0,0,0,1262.26,1118.34Z" transform="translate(-1253 -1113.34)"/>
</svg>
