<svg xmlns="http://www.w3.org/2000/svg" width="32" height="26" viewBox="0 0 32 26">
  <metadata><?xpacket begin="﻿" id="W5M0MpCehiHzreSzNTczkc9d"?>
<x:xmpmeta xmlns:x="adobe:ns:meta/" x:xmptk="Adobe XMP Core 5.6-c138 79.159824, 2016/09/14-01:09:01        ">
   <rdf:RDF xmlns:rdf="http://www.w3.org/1999/02/22-rdf-syntax-ns#">
      <rdf:Description rdf:about=""/>
   </rdf:RDF>
</x:xmpmeta>
                                                                                                    
                                                                                                    
                                                                                                    
                                                                                                    
                                                                                                    
                                                                                                    
                                                                                                    
                                                                                                    
                                                                                                    
                                                                                                    
                                                                                                    
                                                                                                    
                                                                                                    
                                                                                                    
                                                                                                    
                                                                                                    
                                                                                                    
                                                                                                    
                                                                                                    
                                                                                                    
                           
<?xpacket end="w"?></metadata>
<defs>
    <style>
      .cls-1 {
        fill: #6b6f71;
        fill-rule: evenodd;
      }
    </style>
  </defs>
  <path id="icon" class="cls-1" d="M1035,3808h-24a4,4,0,0,1-4-4v-18a4,4,0,0,1,4-4h24a4,4,0,0,1,4,4v18A4,4,0,0,1,1035,3808Zm2-22a2.006,2.006,0,0,0-2-2h-24a2.006,2.006,0,0,0-2,2v18a2.006,2.006,0,0,0,2,2h24a2.006,2.006,0,0,0,2-2v-18Zm-4,9h-4a2.006,2.006,0,0,1-2-2v-4a2.006,2.006,0,0,1,2-2h4a2.006,2.006,0,0,1,2,2v4A2.006,2.006,0,0,1,1033,3795Zm0-5a1,1,0,0,0-1-1h-2a1,1,0,0,0-1,1v2a1,1,0,0,0,1,1h2a1,1,0,0,0,1-1v-2Zm-9,13h-12a1,1,0,0,1,0-2h12A1,1,0,0,1,1024,3803Zm0-4h-12a1,1,0,0,1,0-2h12A1,1,0,0,1,1024,3799Z" transform="translate(-1007 -3782)"/>
</svg>
