<svg xmlns="http://www.w3.org/2000/svg" width="24.718" height="20.34" viewBox="0 0 24.718 20.34">
  <metadata><?xpacket begin="﻿" id="W5M0MpCehiHzreSzNTczkc9d"?>
<x:xmpmeta xmlns:x="adobe:ns:meta/" x:xmptk="Adobe XMP Core 5.6-c138 79.159824, 2016/09/14-01:09:01        ">
   <rdf:RDF xmlns:rdf="http://www.w3.org/1999/02/22-rdf-syntax-ns#">
      <rdf:Description rdf:about=""/>
   </rdf:RDF>
</x:xmpmeta>
                                                                                                    
                                                                                                    
                                                                                                    
                                                                                                    
                                                                                                    
                                                                                                    
                                                                                                    
                                                                                                    
                                                                                                    
                                                                                                    
                                                                                                    
                                                                                                    
                                                                                                    
                                                                                                    
                                                                                                    
                                                                                                    
                                                                                                    
                                                                                                    
                                                                                                    
                                                                                                    
                           
<?xpacket end="w"?></metadata>
<defs>
    <style>
      .cls-1 {
        fill: #414344;
        fill-rule: evenodd;
      }
    </style>
  </defs>
  <path id="twitter" class="cls-1" d="M522,3775.66a5.163,5.163,0,0,1,4,1.61,7.9,7.9,0,0,0,2.6-.89c0.21-.11.42-0.23,0.631-0.35a5.179,5.179,0,0,1-1.645,2.42,2.7,2.7,0,0,1-.556.4v0.01a9.434,9.434,0,0,0,2.868-.79v0.01a8.488,8.488,0,0,1-1.718,2.01l-0.791.63a15.073,15.073,0,0,1-.235,3.31c-1.266,5.77-4.619,9.69-9.927,11.37a15,15,0,0,1-7.17.3,18.759,18.759,0,0,1-2.98-.99,12.274,12.274,0,0,1-1.434-.75c-0.148-.09-0.3-0.19-0.445-0.28a7.814,7.814,0,0,0,1.62.07c0.5-.09.986-0.06,1.446-0.17a10.151,10.151,0,0,0,3.041-1.11,5.687,5.687,0,0,0,1.372-.91,4.284,4.284,0,0,1-1.508-.28,5.141,5.141,0,0,1-3.214-3.29,4.845,4.845,0,0,0,2.262-.1,3.644,3.644,0,0,1-1.656-.67,4.979,4.979,0,0,1-2.386-4.41c0.173,0.09.346,0.17,0.519,0.25a5.422,5.422,0,0,0,1.063.3,1.462,1.462,0,0,0,.692.07h-0.024c-0.256-.31-0.671-0.51-0.928-0.83a5.32,5.32,0,0,1-1.137-4.67,5.976,5.976,0,0,1,.544-1.33,0.028,0.028,0,0,1,.025.01,3.3,3.3,0,0,0,.457.54,9.429,9.429,0,0,0,1.508,1.46,14.843,14.843,0,0,0,6.194,3.04,9.47,9.47,0,0,0,2.275.3,4.831,4.831,0,0,1,.024-2.41,5.078,5.078,0,0,1,2.868-3.46,6.27,6.27,0,0,1,1.125-.35C521.588,3775.71,521.795,3775.68,522,3775.66Z" transform="translate(-505.188 -3775.66)"/>
</svg>
